<svg width="1106" height="1106" viewBox="0 0 1106 1106" fill="none" xmlns="http://www.w3.org/2000/svg">
<g clip-path="url(#clip0_2033_10)">
<path d="M684.155 85.2381C665.524 87.7572 647.295 91.3594 629.797 98.5639C595.401 112.584 565.966 136.548 545.255 167.394C524.544 198.239 513.497 234.563 513.528 271.723C513.427 458.485 513.427 645.246 513.528 832.008C513.528 888.586 474.603 933.526 421.68 941.738C355.942 951.94 297.505 898.914 297.656 832.739C298.059 653.887 297.656 474.783 297.883 295.805C297.883 277.92 298.21 259.531 290.909 243.384C281.77 223.231 289.726 211.946 303.724 198.318C357.453 146.073 409.746 92.367 462.871 39.6183C515.995 -13.1305 589.916 -13.2816 643.695 39.6183C657.744 53.5234 672.523 66.8995 687 80.4267L684.155 85.2381Z" fill="#5FC4E6"/>
<path d="M417 1022.78C502.66 1009.83 558.713 966.581 584.98 887.613C591.712 867.488 593.255 846.381 593.255 825.174C593.255 640.842 593.255 456.518 593.255 272.202C593.255 219.524 628.861 176.959 680.156 166.997C704.447 162.261 729.637 166.008 751.47 177.605C773.302 189.202 790.438 207.937 799.979 230.643C805.868 245.661 808.673 261.7 808.229 277.812C808.043 453.256 807.967 628.699 808.001 804.143C808.001 829.3 810.531 854.079 819.54 877.676C822.425 885.223 821.008 889.626 815.517 895.06C756.225 953.776 697.794 1013.3 637.895 1071.43C589.459 1118.4 514.554 1117.04 465.942 1070.18C450.353 1055.18 434.866 1040.11 417 1022.78Z" fill="#5A595B"/>
<path d="M887 289C894.378 290.679 897.142 295.815 901.021 299.547C955.602 353.412 1010.11 407.352 1064.53 461.367C1119.58 516.009 1119.86 589.691 1065.14 644.006C1009.94 698.84 954.647 753.565 899.272 808.181C895.925 811.463 893.592 816.424 887 817V289Z" fill="#1784C7"/>
<path d="M217 817C210.966 815.696 208.466 811.029 205.108 807.693C149.984 752.971 94.9433 698.191 39.9871 643.352C-13.0335 590.319 -13.4627 515.963 39.5074 462.906C94.7497 407.532 150.16 352.342 205.739 297.336C208.794 294.325 212.077 291.516 217 287V817Z" fill="#1583C6"/>
</g>
<defs>
<clipPath id="clip0_2033_10">
<rect width="1106" height="1106" fill="white"/>
</clipPath>
</defs>
</svg>
