<svg width="63" height="63" viewBox="0 0 63 63" fill="none" xmlns="http://www.w3.org/2000/svg">
<g clip-path="url(#clip0_2005_169)">
<path d="M51.4309 3.9375H11.5667C5.20366 3.9375 0.00195312 9.14342 0.00195312 15.5085V59.0625L11.8145 47.25H51.433C57.796 47.25 63.0019 42.0441 63.0019 35.6853V15.5085C62.9999 9.14342 57.7939 3.9375 51.4309 3.9375ZM17.1737 31.5C14.9981 31.5 13.2362 29.736 13.2362 27.5625C13.2362 25.389 14.9981 23.625 17.1737 23.625C19.3472 23.625 21.1112 25.389 21.1112 27.5625C21.1112 29.736 19.3451 31.5 17.1737 31.5ZM31.4978 31.4979C29.3222 31.4979 27.5603 29.7318 27.5603 27.5604C27.5603 25.389 29.3222 23.625 31.4978 23.625C33.6713 23.625 35.4353 25.389 35.4353 27.5604C35.4353 29.7318 33.6713 31.4979 31.4978 31.4979ZM45.9436 31.5C43.768 31.5 42.0061 29.736 42.0061 27.5625C42.0061 25.389 43.768 23.625 45.9436 23.625C48.1171 23.625 49.8811 25.389 49.8811 27.5625C49.8811 29.736 48.1171 31.5 45.9436 31.5Z" fill="#1784C7"/>
</g>
<defs>
<clipPath id="clip0_2005_169">
<rect width="63" height="63" fill="white"/>
</clipPath>
</defs>
</svg>
