<svg width="55" height="55" viewBox="0 0 55 55" fill="none" xmlns="http://www.w3.org/2000/svg">
<g clip-path="url(#clip0_2005_226)">
<path d="M15.4689 12.6042C14.2039 12.6042 13.1772 11.5775 13.1772 10.3125V2.29167C13.1772 1.02667 14.2039 0 15.4689 0C16.7339 0 17.7606 1.02667 17.7606 2.29167V10.3125C17.7606 11.5775 16.7339 12.6042 15.4689 12.6042Z" fill="#FF7700"/>
<path d="M26.3542 12.6042C25.0892 12.6042 24.0625 11.5775 24.0625 10.3125V2.29167C24.0625 1.02667 25.0892 0 26.3542 0C27.6192 0 28.6458 1.02667 28.6458 2.29167V10.3125C28.6458 11.5775 27.6192 12.6042 26.3542 12.6042Z" fill="#FF7700"/>
<path d="M37.2394 12.6042C35.9744 12.6042 34.9478 11.5775 34.9478 10.3125V2.29167C34.9478 1.02667 35.9744 0 37.2394 0C38.5044 0 39.5311 1.02667 39.5311 2.29167V10.3125C39.5311 11.5775 38.5044 12.6042 37.2394 12.6042Z" fill="#FF7700"/>
<path d="M41.8231 5.15625H10.8856C7.40912 5.15625 4.5835 7.98188 4.5835 11.4583V48.6979C4.5835 52.1744 7.40912 55 10.8856 55H41.8231C45.2995 55 48.1252 52.1744 48.1252 48.6979V11.4583C48.1252 7.98188 45.2995 5.15625 41.8231 5.15625ZM16.0418 18.3333H27.5002C28.7652 18.3333 29.7918 19.36 29.7918 20.625C29.7918 21.89 28.7652 22.9167 27.5002 22.9167H16.0418C14.7768 22.9167 13.7502 21.89 13.7502 20.625C13.7502 19.36 14.7768 18.3333 16.0418 18.3333ZM38.9585 41.25H16.0418C14.7768 41.25 13.7502 40.2233 13.7502 38.9583C13.7502 37.6933 14.7768 36.6667 16.0418 36.6667H38.9585C40.2235 36.6667 41.2502 37.6933 41.2502 38.9583C41.2502 40.2233 40.2235 41.25 38.9585 41.25ZM38.9585 32.0833H16.0418C14.7768 32.0833 13.7502 31.0567 13.7502 29.7917C13.7502 28.5267 14.7768 27.5 16.0418 27.5H38.9585C40.2235 27.5 41.2502 28.5267 41.2502 29.7917C41.2502 31.0567 40.2235 32.0833 38.9585 32.0833Z" fill="#FF7700"/>
</g>
<defs>
<clipPath id="clip0_2005_226">
<rect width="55" height="55" fill="white"/>
</clipPath>
</defs>
</svg>
