<svg width="55" height="55" viewBox="0 0 55 55" fill="none" xmlns="http://www.w3.org/2000/svg">
<g clip-path="url(#clip0_2005_184)">
<path d="M47.1275 12.0784H43.188C44.556 6.15033 40.1063 0 33.5393 0C26.9714 0 22.5226 6.15076 23.8905 12.0784H13.9118C12.8993 12.0784 12.0784 12.8992 12.0784 13.9118V23.8899C6.15431 22.5253 0 26.9692 0 33.5393C0 40.1159 6.15817 44.551 12.0785 43.1888V53.1667C12.0785 54.1792 12.8993 55.0001 13.9119 55.0001H26.5641C27.9722 55.0001 28.8572 53.4716 28.1519 52.2502C25.7724 48.128 28.7461 42.9217 33.5395 42.9217C38.3388 42.9217 41.3038 48.1327 38.9269 52.2502C38.2229 53.4698 39.1042 55 40.5146 55H53.1666C54.1791 55 55 54.1792 55 53.1666V19.9509C55 15.6101 51.4683 12.0784 47.1275 12.0784Z" fill="#5A595B"/>
</g>
<defs>
<clipPath id="clip0_2005_184">
<rect width="55" height="55" fill="white"/>
</clipPath>
</defs>
</svg>
