<?xml version="1.0" encoding="utf-8"?>
<!-- Generator: Adobe Illustrator 25.4.1, SVG Export Plug-In . SVG Version: 6.00 Build 0)  -->
<svg version="1.1" baseProfile="tiny" id="Capa_1" xmlns="http://www.w3.org/2000/svg" xmlns:xlink="http://www.w3.org/1999/xlink"
	 x="0px" y="0px" viewBox="0 0 407.7 407.9" overflow="visible" xml:space="preserve">
<g>
	<path fill="#3765AF" d="M196.7,0c27,2.3,53.1,8.5,75.8,23.6c40.9,27.1,77.2,59.6,107.2,98.6c14.7,19.1,24.4,40.6,27.4,65
		c2,16.2-1.8,31.4-5.9,46.7c-4.2,15.9-10.8,30.8-20.2,44.2c-25.5,36.1-54.6,68.9-88.8,97c-19.4,15.9-41.2,27.3-66.3,31.7
		c-19.1,3.3-37-1.1-55-6.1c-24.2-6.8-44.5-20.5-63.8-36.1c-28-22.7-54.7-46.8-76.9-75.3c-14.3-18.3-24.5-38.6-28.9-61.8
		c-3.5-18.5,0.5-36,5.2-53.6c6.4-24.1,19.4-44.6,34.9-63.9c22.8-28.4,47-55.4,75.6-78.1c18.4-14.7,38.8-25.6,62.3-30
		C185,0.8,190.7,0.1,196.7,0z M181.8,180.4c-1.6-0.8-2.3-1.2-3-1.6c-0.7-0.4-1.4-0.8-2.2-1.2c-13.6-5.7-26.6-5.1-38.8,3.7
		c-11.4,8.3-16.2,19.7-14.5,33.5c2.4,19.8,19.8,34.4,38.5,33.1c19.6-1.4,34.9-18,35-38c0.1-16.6,0-33.3,0-49.9
		c0-6.1-2.8-9.6-7.6-9.6c-4.6,0-7.5,3.7-7.5,9.8C181.8,166.8,181.8,173.2,181.8,180.4z M352.6,211.4c0.1-20-16.6-37.1-36.1-37.2
		c-20.6-0.1-37.7,16.4-37.8,36.6c-0.1,20.8,16.1,37.2,36.8,37.3C335.8,248.2,352.6,231.6,352.6,211.4z M275.1,211.1
		c-0.3-20.4-17.1-37.1-36.9-36.9c-20.4,0.2-37.6,17.5-37.1,37.4c0.5,20.9,17,36.8,37.7,36.5C258.8,247.7,275.4,230.8,275.1,211.1z
		 M46.6,211.3c0,20.7,16.1,36.7,36.7,36.8c20.4,0.1,37.4-17,37.2-37.2c-0.2-19.6-17-36.6-36.2-36.7
		C63.3,174.2,46.6,190.7,46.6,211.3z"/>
	<path fill="#FBFCFD" d="M181.8,180.4c0-7.2,0-13.7,0-20.1c0-6.1,2.9-9.9,7.5-9.8c4.8,0,7.6,3.5,7.6,9.6c0,16.6,0.1,33.3,0,49.9
		c-0.1,20-15.4,36.6-35,38c-18.7,1.4-36.1-13.3-38.5-33.1c-1.7-13.8,3.1-25.2,14.5-33.5c12.1-8.8,25.2-9.4,38.8-3.7
		c0.8,0.3,1.5,0.8,2.2,1.2C179.5,179.2,180.2,179.6,181.8,180.4z M181.8,211.5c0.1-12-9.9-22.2-21.6-22.3
		c-12-0.1-22.1,9.8-22.2,21.7c-0.1,11.7,10.2,22.2,21.9,22.2C171.5,232.9,181.7,223,181.8,211.5z"/>
	<path fill="#FBFCFD" d="M352.6,211.4c-0.1,20.1-16.9,36.7-37.1,36.7c-20.8-0.1-37-16.5-36.8-37.3c0.1-20.2,17.2-36.7,37.8-36.6
		C336.1,174.3,352.7,191.5,352.6,211.4z M315.6,233.3c11.9,0,21.9-9.7,22-21.3c0.1-12.3-10.2-22.8-22.4-22.7
		c-11.6,0.1-21.5,10.2-21.4,21.9C293.7,223.2,303.7,233.3,315.6,233.3z"/>
	<path fill="#FBFCFD" d="M275.1,211.1c0.3,19.7-16.3,36.6-36.3,37c-20.7,0.4-37.2-15.5-37.7-36.5c-0.5-19.9,16.6-37.2,37.1-37.4
		C258,174,274.8,190.7,275.1,211.1z M260,211.5c-0.1-12.3-10.2-22.3-22.3-22.2c-11.9,0.1-21.5,10.2-21.3,22.4
		c0.2,12.1,10.1,21.7,22.2,21.6C250.4,233.2,260.1,223.2,260,211.5z"/>
	<path fill="#FBFCFD" d="M46.6,211.3c0-20.6,16.7-37.1,37.7-37.1c19.2,0,36,17.1,36.2,36.7c0.2,20.2-16.8,37.2-37.2,37.2
		C62.7,248,46.6,232,46.6,211.3z M61.6,211.3c0,12.2,9.8,22,21.8,22c11.7,0,21.9-9.9,22-21.4c0.1-12.2-10.4-22.7-22.6-22.6
		C71.2,189.4,61.6,199.4,61.6,211.3z"/>
	<path fill="#3765AF" d="M181.8,211.5c-0.1,11.5-10.2,21.5-21.9,21.5c-11.7,0-22-10.4-21.9-22.2c0.1-11.9,10.3-21.8,22.2-21.7
		C171.9,189.2,181.8,199.5,181.8,211.5z"/>
	<path fill="#3765AF" d="M315.6,233.3c-11.9,0-21.8-10.1-21.9-22.1c0-11.7,9.8-21.8,21.4-21.9c12.2-0.1,22.6,10.4,22.4,22.7
		C337.5,223.6,327.4,233.3,315.6,233.3z"/>
	<path fill="#3765AF" d="M260,211.5c0.1,11.7-9.6,21.7-21.4,21.8c-12.1,0.2-22-9.4-22.2-21.6c-0.2-12.2,9.4-22.4,21.3-22.4
		C249.8,189.2,259.9,199.2,260,211.5z"/>
	<path fill="#3765AF" d="M61.6,211.3c0-12,9.5-21.9,21.2-22c12.2-0.1,22.7,10.4,22.6,22.6c-0.1,11.5-10.3,21.4-22,21.4
		C71.4,233.3,61.7,223.5,61.6,211.3z"/>
</g>
</svg>
