<svg width="55" height="55" viewBox="0 0 55 55" fill="none" xmlns="http://www.w3.org/2000/svg">
<path d="M47.8824 3.23529H43.0294V8.08823C43.0294 9.05882 42.2206 9.70588 41.4118 9.70588C40.603 9.70588 39.7941 9.05882 39.7941 8.08823V3.23529H13.9118V8.08823C13.9118 9.05882 13.103 9.70588 12.2941 9.70588C11.4853 9.70588 10.6765 9.05882 10.6765 8.08823V3.23529H5.82356C3.39709 3.23529 1.61768 5.33823 1.61768 8.08823V13.9118H53.3824V8.08823C53.3824 5.33823 50.4706 3.23529 47.8824 3.23529ZM1.61768 17.3088V46.9118C1.61768 49.8235 3.39709 51.7647 5.98532 51.7647H48.0441C50.6324 51.7647 53.5441 49.6618 53.5441 46.9118V17.3088H1.61768ZM16.0147 44.4853H12.1324C11.4853 44.4853 10.8383 44 10.8383 43.1912V39.1471C10.8383 38.5 11.3236 37.8529 12.1324 37.8529H16.1765C16.8236 37.8529 17.4706 38.3382 17.4706 39.1471V43.1912C17.3089 44 16.8236 44.4853 16.0147 44.4853ZM16.0147 29.9265H12.1324C11.4853 29.9265 10.8383 29.4412 10.8383 28.6324V24.5882C10.8383 23.9412 11.3236 23.2941 12.1324 23.2941H16.1765C16.8236 23.2941 17.4706 23.7794 17.4706 24.5882V28.6324C17.3089 29.4412 16.8236 29.9265 16.0147 29.9265ZM28.9559 44.4853H24.9118C24.2647 44.4853 23.6177 44 23.6177 43.1912V39.1471C23.6177 38.5 24.103 37.8529 24.9118 37.8529H28.9559C29.603 37.8529 30.25 38.3382 30.25 39.1471V43.1912C30.25 44 29.7647 44.4853 28.9559 44.4853ZM28.9559 29.9265H24.9118C24.2647 29.9265 23.6177 29.4412 23.6177 28.6324V24.5882C23.6177 23.9412 24.103 23.2941 24.9118 23.2941H28.9559C29.603 23.2941 30.25 23.7794 30.25 24.5882V28.6324C30.25 29.4412 29.7647 29.9265 28.9559 29.9265ZM41.8971 44.4853H37.853C37.2059 44.4853 36.5589 44 36.5589 43.1912V39.1471C36.5589 38.5 37.0441 37.8529 37.853 37.8529H41.8971C42.5441 37.8529 43.1912 38.3382 43.1912 39.1471V43.1912C43.1912 44 42.7059 44.4853 41.8971 44.4853ZM41.8971 29.9265H37.853C37.2059 29.9265 36.5589 29.4412 36.5589 28.6324V24.5882C36.5589 23.9412 37.0441 23.2941 37.853 23.2941H41.8971C42.5441 23.2941 43.1912 23.7794 43.1912 24.5882V28.6324C43.1912 29.4412 42.7059 29.9265 41.8971 29.9265Z" fill="#FF7700"/>
</svg>
