<?xml version="1.0" encoding="utf-8"?>
<!-- Generator: Adobe Illustrator 25.4.1, SVG Export Plug-In . SVG Version: 6.00 Build 0)  -->
<svg version="1.1" baseProfile="tiny" id="Capa_1" xmlns="http://www.w3.org/2000/svg" xmlns:xlink="http://www.w3.org/1999/xlink"
	 x="0px" y="0px" viewBox="0 0 1297.1 610.8" overflow="visible" xml:space="preserve">
<path fill="#4687F3" d="M323.6,118.2c17.5,0,35,0.1,52.5-0.1c4-0.1,4.9,1.4,5.3,5c2.6,24.5-1.1,47.9-11.4,70.2
	c-6,12.9-15,23.9-25.8,33.1c-10.4,8.8-21.8,16-34.8,20.6c-10,3.5-20.2,5.9-30.8,7.2c-7,0.9-13.9,1.9-21,1.2
	c-14.6-1.4-28.9-4.4-42.5-10c-18.2-7.4-34.2-18.2-47.4-32.6c-13.1-14.3-22.2-30.9-28.5-49.4c-5.8-17-6-34.5-4.4-51.7
	c2.1-22.4,11.8-42.3,25.3-60.5c8.5-11.5,18.8-21,30.4-28.8c15.7-10.5,33-17.8,51.9-20.7c25.5-3.9,50-0.8,73.3,9.8
	c10.9,4.9,20.7,11.7,29.7,19.7c2.4,2.1,1.9,3.6,0.3,5.3c-5.8,5.8-11.8,11.4-17.6,17.2c-1.7,1.7-2.6,1.1-4-0.2
	c-11.2-9.8-24-15.9-38.7-19.4c-24.7-5.8-47.9-2.8-69.8,9.4c-16.8,9.3-29.7,22.9-37.6,40.4c-13.2,28.9-14.1,58.7,0,87
	c16.4,32.7,43.2,51.4,80.9,52.5c13,0.4,25.9,0,38.2-4.7c19.4-7.4,35.2-19.1,44.8-38c3.8-7.5,5.5-15.7,7.4-23.7
	c1.4-6.2,0.2-7.4-6.1-7.4c-23.7,0-47.3-0.2-71,0.1c-5.3,0.1-6.5-1.6-6.2-6.5c0.4-6.8,0.3-13.7,0-20.5c-0.1-3.6,1-4.5,4.5-4.4
	C288.3,118.3,305.9,118.2,323.6,118.2z"/>
<path fill="#4687F3" d="M920.2,177.4c0,24.2,0.4,48.3-0.1,72.5c-0.5,21.5-6,41.5-21,57.8c-8.4,9.2-19.1,15-31,18.5
	c-9.4,2.8-19,4.6-28.9,3.8c-13.9-1-26.8-5-38.5-12.9c-11.2-7.5-19.7-17.3-26.6-28.7c-2-3.3-2.2-4.9,2.1-6.4c7-2.4,13.8-5.5,20.5-8.6
	c2.8-1.3,3.3,0.1,4.5,1.9c6.2,10.3,13.9,19.7,25.7,23c21.2,5.9,42.8,3.4,55.7-16.8c4.9-7.6,6.3-16.3,6.9-25.2c0.3-5,0.1-10,0-15
	c0-1.7,0.9-4-1.4-4.8c-2.2-0.8-4.1,0.1-5.8,1.9c-5.8,6.4-13.1,10.3-21.3,13.1c-15.6,5.5-30.7,3.4-45.5-2.5
	c-20.1-8-34.9-22-43.6-41.7c-5.6-12.6-9.5-26.2-7.5-40.2c2.4-16.4,7.7-31.6,18.5-44.9c11.4-14,25.6-23.1,42.7-27.8
	c20.3-5.6,38.5-0.5,55.2,11.6c0.4,0.3,0.7,0.7,1,1.1c1.3,1.9,2.4,4.6,5.1,3.8c3.3-1,2.5-4.2,2.6-6.8c0.1-7.9-0.9-6.8,6.9-6.9
	c6.2,0,12.3,0.2,18.5-0.1c4.1-0.2,5.4,1,5.4,5.2C920.1,127.4,920.2,152.4,920.2,177.4z M850.9,123c-18.1-0.1-28.8,4.5-37.2,13.4
	c-17.1,18.3-19.4,44.9-6.4,66.3c15.1,24.9,49.4,29.2,69.2,7.9c15.6-16.8,17.5-36.9,9.9-58.1C879.7,133.9,864.1,123,850.9,123z"/>
<path fill="#FABD0E" d="M746.2,173.3c0.2,47.1-36.1,84.2-86.7,82.8c-21.7-0.6-40.9-9.3-56.5-25.3c-15.6-16-22-36-22.3-57.2
	c-0.2-18.8,5.2-37,17.9-52.2c17.6-21,40.3-30.5,67.2-29.9C709.9,92.3,746.1,126,746.2,173.3z M663.5,224.3
	c12.7,0,23.6-4.7,32.5-13.5c8.9-8.8,13.4-19.6,14.6-32.1c1.1-11.2-0.5-21.9-6.2-31.4c-10.7-17.7-26.5-26.7-47.6-23.9
	c-11.1,1.5-20.7,6.6-28,15.4c-10.6,12.8-14.2,27.6-11.6,43.9C620.9,206.2,639.8,224.1,663.5,224.3z"/>
<path fill="#62666A" d="M176.4,550.3c-10.4,0-10.8,0.1-14.5-11.2c-9.1-27.6-17.6-55.5-26.7-83.1c-3.6-11-7.8-21.7-10.8-32.9
	c-0.7-2.5-2.8-3-4.9-3.2c-2.6-0.3-2.6,2.2-3.1,3.6c-3.8,11.5-7.4,23-11.2,34.5c-7.8,23.8-15.7,47.6-23.5,71.5
	c-2.1,6.2-3.6,12.6-6.1,18.7c-0.7,1.8-1.5,2.2-3.1,2.2c-5.7,0-11.3,0-17,0c-1.9,0-2.5-0.4-3.2-2.6c-7.1-25.5-14-51.1-21.1-76.6
	c-6.9-24.7-13.7-49.4-20.8-74c-3.2-11.2-6.3-22.5-9.5-33.7c-1.8-6.3-1.2-7.1,5.3-7.1c14.5,0,14.3,0,18,14
	c6.1,23.1,12.5,46.2,18.7,69.3c6.1,22.9,12.2,45.9,18.2,68.9c0.5,2,0.6,3.8,3.4,4c2.7,0.1,3.3-1.5,3.9-3.5c7-20.9,14-41.7,20.9-62.6
	c6-18.1,11.8-36.2,17.6-54.3c0.8-2.5,2.6-4.6,2.5-7.4c0-1.4,1.1-1.5,2.1-1.5c1.8-0.1,3.7-0.1,5.5-0.1c14,0,14,0,18,13.1
	c11.6,37.5,24.5,74.5,36.9,111.8c0.7,2,1.3,4.2,3.5,4.1c2-0.1,3.5-1.5,4.1-4.2c3.4-14,7.2-28,10.8-42c6.2-24.1,12.3-48.2,18.4-72.4
	c2.9-11.5,5.8-23,8.5-34.5c0.5-2,1.5-2.8,3.4-2.8c5.3,0,10.7,0,16,0c2.2,0,2.7,0.7,2.1,3c-4.2,15-8.2,30-12.1,45.1
	c-4.9,18.6-9.6,37.2-14.6,55.7c-5,18.7-10.2,37.3-15.3,56c-2.6,9.7-5.3,19.3-7.5,29c-0.9,4-2.2,5.8-6.4,5.2
	C180.8,550,178.6,550.3,176.4,550.3z"/>
<path fill="#E9473A" d="M562.9,179.2c-0.4,17.2-8.2,37.2-24.8,53.2c-16,15.5-36.2,23.4-57.7,23.3c-21.8-0.1-41.8-8.2-57.9-24.6
	c-15.9-16.1-23.4-35.7-23.8-57.5c-0.3-19.6,5.9-37.8,19.1-52.8c16.7-19.2,38.1-29.3,63.5-29C526.1,92.3,563,127.1,562.9,179.2z
	 M482.9,123c-13.2-0.1-22.9,3.4-31,10.5c-17.5,15.4-21.4,34.9-15.5,56.6c9.5,34.4,53.1,45.8,77.5,20.3
	c11.9-12.5,15.8-27.7,13.8-44.9C524.8,141.1,505,122.9,482.9,123z"/>
<path fill="#E9473A" d="M1079.8,225.8c21.1-0.1,34.5-6.4,44.4-19.5c1.3-1.7,2.7-2.7,4.9-1.2c6.5,4.5,12.9,9,19.5,13.4
	c2,1.3,2.9,2.2,1,4.5c-13.7,16.6-30.3,28-52.2,31.1c-3.8,0.5-7.9,0.3-11.6,2c-2.8,1.3-5.7-1-8.6-1.3c-26.9-2.7-47.7-15.3-61.7-38.7
	c-9-14.9-13.2-31.2-11.9-48.5c2.8-37.4,27.2-70.6,69.4-75.4c23.3-2.6,42.6,5.4,58.7,22.2c9.5,9.9,15.5,21.6,20.3,34.2
	c0.9,2.5,0.3,3.3-1.6,4.1c-15,6.1-29.9,12.2-44.9,18.4c-19.8,8.2-39.5,16.6-59.3,24.7c-3.8,1.6-4.1,3.5-2.1,6.8
	C1053.2,218.2,1066.4,226.3,1079.8,225.8z M1082.8,122.2c-22.8,0.1-44,19.4-44.5,45.2c-0.1,2.6,0.4,3.6,3.3,2.4
	c22.6-9.4,45.3-18.7,68-28c3.8-1.5,3.1-3.7,1.3-6.1C1103.9,126.2,1094.1,122.6,1082.8,122.2z"/>
<path fill="#62666A" d="M744.4,514.2c0-30,0.1-60-0.1-89.9c0-4.2,1-5.6,5.2-5.2c3.8,0.4,7.7,0.2,11.5,0c2.6-0.1,3.6,0.7,3.4,3.4
	c-0.2,3.5-0.1,7,0,10.5c0,1.6-0.4,3.5,1.7,4.3c2,0.7,3.6-0.2,4.7-1.8c5-7.3,11.9-12,19.7-15.7c21.6-10.3,44.6-5.1,61.6,10
	c13.5,11.9,21.6,27.2,23.8,44.7c2.7,21.3-2.7,40.8-16.9,57.6c-9,10.8-19.8,18-33.5,21.6c-13.1,3.4-25.3,1.1-37-4.9
	c-6.8-3.5-13.6-7.4-17.2-14.7c-1.3-2.6-3.8-1.8-5.7-1.6c-2.3,0.3-1.3,2.5-1.2,3.7c2.5,22.7,1.6,45.4,1.9,68.1
	c0.1,4.9-1.5,6.6-6.2,6.1c-5.1-0.6-11.9,2.2-14.8-1.1c-2.5-2.9-0.8-9.5-0.8-14.5C744.3,567.9,744.4,541.1,744.4,514.2z M853.4,484
	c0.4-14.9-4.5-28.5-16.9-39c-18.5-15.7-46.7-12.1-60.5,7.9c-13.4,19.5-12.8,47,1.5,65.9c12.5,16.5,39.9,20.1,56.2,7.8
	C847.6,516,853.8,502.1,853.4,484z"/>
<path fill="#62666A" d="M1242.7,487.2c-16.5,0-33,0.1-49.5-0.1c-3.2,0-4.3,0.8-4.3,4.1c0.5,22.9,16.5,41.2,38.4,44.3
	c14.8,2.1,27.5-1.3,38.4-11.3c2.5-2.3,4.7-5.1,6.4-8c1.7-2.9,3.7-2.8,6.1-1.6c2.5,1.2,4.8,2.7,7.3,4c6.7,3.4,7,3.5,2.4,9.7
	c-9.9,13.2-23.1,21.7-39.2,24.9c-33.5,6.8-62.4-8.2-75.7-40.1c-4-9.7-6.3-19.7-5.8-30c0.7-18.9,6.9-36,20-49.8
	c8.9-9.4,20.3-15.4,33.1-17.7c17.8-3.2,34.6,0.1,49.4,10.4c13.6,9.5,21.5,23.3,24.4,39.7c1.1,6,2,11.9,2.9,17.9
	c0.6,3.9-2.3,3.7-4.8,3.7C1275.7,487.2,1259.2,487.2,1242.7,487.2z M1232.5,468.3c11.1,0,22.3,0,33.4,0c6.5,0,6.9-0.4,4.9-6.7
	c-4.5-14.7-14.7-22.8-29.6-25.8c-20.3-4.2-40.7,7.7-46.6,27.4c-1.2,3.9-0.4,5.3,3.9,5.2C1209.9,468.2,1221.2,468.3,1232.5,468.3z"/>
<path fill="#62666A" d="M1008.1,502.8c0,16.1-0.2,29,0.1,41.8c0.1,4.8-1.6,6.2-6,5.8c-4-0.3-8-0.1-12-0.1c-2.1,0-3-0.7-2.9-2.9
	c0.1-3.7,0.1-7.3-0.1-11c-0.1-1.4,1.3-3.7-1.4-4.1c-2-0.3-3.9-0.4-5.4,2c-6.4,9.7-15.4,16.3-26.8,18.8c-17.1,3.8-32.9,0.7-46.7-10.7
	c-9.5-7.9-14.7-18.3-15.5-30.2c-0.8-11.5,3.8-21.5,12.1-29.9c10.2-10.3,23-13.6,36.8-15.1c14.2-1.5,27.8,0.6,40.8,6.5
	c4.3,1.9,5.9,0.6,6.3-4.1c1.6-18.1-8.2-29.4-22.9-34.3c-13.8-4.7-33.1-3.9-44.8,8.8c-4.8,5.2-5,5-11,1c-2.6-1.7-5.1-3.6-7.9-5
	c-3-1.5-2.9-2.7-0.8-5.1c10.1-11.6,22.8-17.6,37.8-19.7c18.7-2.6,36,0.5,51.3,12c9.5,7.2,14.5,17.1,17,28.6
	C1009.9,472.6,1006.9,489.4,1008.1,502.8z M947.2,534.5c16.6,0.7,37.7-17.7,38.4-36c0.1-3.4-0.3-5-3.1-6.7
	c-7.8-4.8-16.4-6.2-25.4-6.9c-10.2-0.8-19.8,0.6-28.5,5.7c-12.7,7.5-16.6,20.6-9.2,31.6C925.2,531,934.3,534.3,947.2,534.5z"/>
<path fill="#37A855" d="M983.3,130.1c0,38.1-0.1,76.3,0.1,114.4c0,5.3-1.5,6.3-6.3,6.1c-7.8-0.4-15.7-0.3-23.5,0
	c-3.9,0.2-4.6-1.2-4.6-4.8c0.1-47.5,0.1-94.9,0.1-142.4c0-29.5,0.1-58.9-0.1-88.4c0-5,1.4-6.1,6.1-5.8c7.8,0.4,15.7,0.4,23.5,0
	c4.1-0.2,4.9,1.2,4.8,5C983.3,52.8,983.3,91.4,983.3,130.1z"/>
<path fill="#62666A" d="M308.5,554.3c-13.9,1.3-27.6-4.1-39.4-13.5c-12.2-9.7-21-22-23.9-38.1c-1.2-6.3-2.9-12.5-2.6-18.8
	c1.1-30,16.6-58,49.8-67c24.3-6.6,46.2-1.2,64.6,16.4c17.5,16.7,24,37.6,21,60.8c-3.7,28.2-21.9,50.6-50.1,58.6
	C322.1,554.5,316.1,554.5,308.5,554.3z M355.5,487.2c-0.1-14.2-2.7-24.9-9.9-34.6c-15.6-20.8-45.7-23.3-64.6-5.7
	c-19.9,18.6-20,60.3,3.1,77.8c15.2,11.5,37.9,12.2,52.9,0.6C350.2,515,355.5,501.1,355.5,487.2z"/>
<path fill="#62666A" d="M606.2,420.5c-11.5,11.2-23,22.5-34.5,33.8c-4.1,4-7.9,8.3-12.2,12.1c-3.3,2.9-2.9,5.7-0.8,8.7
	c14.8,21.8,29.7,43.6,44.6,65.4c2.1,3.1,4.3,6.1,7,9.7c-8.1,0-15.4,0-22.6,0c-1.7,0-2.4-0.9-3.4-2.3c-13.1-18.4-24.9-37.6-37.6-56.3
	c-4.1-6.1-6.1-6.3-11.1-1.3c-4.6,4.7-9.1,9.5-14,13.9c-2.5,2.3-3.6,4.7-3.5,8.2c0.2,11-0.1,22,0.2,33c0.1,3.8-1.3,5-4.9,4.8
	c-3.8-0.2-7.7-0.3-11.5,0c-4,0.4-5-1.3-4.6-4.8c0.2-2.1,0-4.3,0-6.5c0-59.1,0.1-118.3-0.1-177.4c0-4.5,1.1-5.9,5.5-5.4
	c3.1,0.4,6.3,0.4,9.5,0c4.7-0.6,6.2,0.8,6.1,5.8c-0.3,34.3-0.1,68.6-0.1,102.9c0,3-0.1,6,0,9c0,1.2-0.7,2.9,1.2,3.3
	c1.4,0.3,2.9,0.6,4.2-0.8c1-1.1,2.2-2,3.2-3.1c16.7-17,33.5-34,50.1-51.2c2.2-2.2,4.3-3.2,7.4-3.1c7,0.2,14,0.1,21,0.1
	C605.6,419.6,605.9,420.1,606.2,420.5z"/>
<path fill="#62666A" d="M672,554.5c-25.5,0.4-42.6-10.9-54.8-30.9c-1.4-2.4-1.6-4.1,1.6-5.3c3.9-1.5,7.8-3.2,11.6-5
	c2.2-1.1,3.4-1,4.6,1.4c6.7,13.5,18.1,20.8,32.7,22.3c9,0.9,18.2-1.2,25.7-6.5c13.6-9.5,9.2-26.3-4.8-32.3c-10.4-4.4-21.5-6-32.2-9
	c-10.5-2.9-20.6-6.7-28.6-14.2c-7.7-7.2-12-20.5-7.7-32.1c6.5-17.5,20.6-24,37-27.5c16.6-3.5,32,0.4,46.3,8.9
	c6.2,3.7,11,9.3,14.8,15.6c0.9,1.6,0.7,2.6-1.2,3.3c-4.3,1.6-8.5,3.4-12.6,5.4c-2.9,1.4-4.1-1-5.2-2.5c-7-9.3-16.7-12.9-27.8-12.9
	c-6.5,0-13-0.7-19.4,2.5c-8.9,4.5-12,8.4-11.6,18.8c0.2,5.8,5.2,11.5,13,13.8c11,3.2,22.1,6,33.2,9c11.2,3,21.3,7.9,29.3,16.4
	c8.9,9.4,9.6,27.8,1.5,39C705.7,548.6,689.5,554.6,672,554.5z"/>
<path fill="#62666A" d="M1099.6,554.5c-26.9,0-44.6-9.4-57.5-27.3c-7.7-10.7-11.8-23-13-36.5c-1.6-18.1,3-34.2,13.1-48.9
	c7.4-10.8,17.6-18.5,30-23.1c21.1-7.8,41.2-5.6,60.1,6.7c8.2,5.3,14.3,12.6,18.7,21.3c1.1,2.2,1.6,3.6-1.8,4.5
	c-4.1,1.1-7.8,3.2-11.8,4.7c-1.8,0.7-3.2,0.9-4.6-1.6c-9.4-16.7-25.6-22.8-45.6-20.5c-19.6,2.2-34.4,22.7-36.2,38.8
	c-1.5,13.7-1.8,27.1,5.1,39.5c8.7,15.5,21.9,24.4,40,23.9c12.9-0.3,24.9-4,33.4-14.7c1.8-2.3,3.3-4.9,4.8-7.4c1.1-1.8,2.2-2,4.1-1.2
	c4.2,1.9,8.4,3.8,12.7,5.4c2.9,1.1,1.6,2.8,0.8,4.3c-6,10.3-14,18.7-24.5,24.4C1117.3,552.7,1106.5,554.9,1099.6,554.5z"/>
<path fill="#62666A" d="M401.4,484.8c0-20.3,0.1-40.6-0.1-60.9c0-3.7,0.8-5.1,4.6-4.8c4,0.4,8,0.2,12,0c2.6-0.1,3.5,0.7,3.4,3.3
	c-0.2,4.5-0.1,9,0,13.5c0,1.8-0.4,3.8,2.1,4.4c2.2,0.6,3-1,3.8-2.4c5.3-8.9,12.5-15.3,22.1-19.4c9.1-3.9,18.2-3.9,27.5-1.8
	c1.5,0.3,3.4,1.2,1.9,3.5c-0.1,0.1-0.2,0.3-0.2,0.4c-1.5,5-1.6,11.5-4.9,14.7c-3.4,3.3-10.1,0.9-15.3,1c-16.3,0.3-33.2,15-35.1,31.6
	c-2.2,18.6-0.5,37.2-1,55.8c-0.2,7.7-0.1,15.3,0,23c0.1,2.8-0.8,3.9-3.7,3.7c-5.6-0.5-12.9,2.3-16.3-1.2c-2.7-2.8-0.9-10.1-0.9-15.4
	C401.4,517.4,401.4,501.1,401.4,484.8z"/>
</svg>
