<svg width="49" height="55" viewBox="0 0 49 55" fill="none" xmlns="http://www.w3.org/2000/svg">
<g clip-path="url(#clip0_2005_174)">
<path d="M49 5.78947V49.2105C49 50.7737 48.3657 52.2211 47.3277 53.3211C46.2321 54.4211 44.7905 55 43.2336 55H10.0768C8.51986 55 7.07826 54.3632 5.98264 53.3211C4.88703 52.2211 4.31039 50.7737 4.31039 49.2105V47.7632H2.86879C1.83083 47.7632 0.908209 47.1842 0.389232 46.3158C-0.129744 45.4474 -0.129744 44.2895 0.389232 43.4211C0.908209 42.5526 1.83083 41.9737 2.86879 41.9737H4.31039V36.1842H2.86879C1.83083 36.1842 0.908209 35.6053 0.389232 34.7368C-0.129744 33.8684 -0.129744 32.7105 0.389232 31.8421C0.908209 30.9737 1.83083 30.3947 2.86879 30.3947H4.31039V24.6053H2.86879C1.83083 24.6053 0.908209 24.0263 0.389232 23.1579C-0.129744 22.2895 -0.129744 21.1316 0.389232 20.2632C0.908209 19.3947 1.83083 18.8158 2.86879 18.8158H4.31039V13.0263H2.86879C1.83083 13.0263 0.908209 12.4474 0.389232 11.5789C-0.129744 10.7105 -0.129744 9.55263 0.389232 8.68421C0.908209 7.81579 1.83083 7.23684 2.86879 7.23684H4.31039V5.78947C4.31039 4.22632 4.94469 2.77895 5.98264 1.67895C7.07826 0.578947 8.51986 0 10.0768 0H43.2336C44.7905 0 46.2321 0.636842 47.3277 1.67895C48.3657 2.77895 49 4.22632 49 5.78947ZM27.376 11.5789C25.4731 11.5789 23.6278 12.3316 22.3016 13.7211C20.9753 15.0526 20.168 16.9053 20.168 18.8158C20.168 20.7263 20.9176 22.5789 22.3016 23.9105C23.6278 25.2421 25.4731 26.0526 27.376 26.0526C29.2789 26.0526 31.1242 25.3 32.4504 23.9105C33.7767 22.5789 34.584 20.7263 34.584 18.8158C34.584 16.9053 33.8344 15.0526 32.4504 13.7211C31.1242 12.3316 29.2789 11.5789 27.376 11.5789ZM27.376 28.9474C24.3198 28.8895 21.3213 30.1053 19.1877 32.3053C16.9965 34.4474 15.7855 37.4579 15.8432 40.5263V41.9737C15.8432 42.3789 16.0162 42.7263 16.2468 43.0158C16.5352 43.3053 16.8811 43.4211 17.2848 43.4211H37.4672C37.8708 43.4211 38.2168 43.2474 38.5051 43.0158C38.7935 42.7842 38.9088 42.3789 38.9088 41.9737V40.5263C38.9665 37.4579 37.7555 34.4474 35.5643 32.3053C33.4307 30.1053 30.4322 28.8895 27.376 28.9474Z" fill="#FF7700"/>
</g>
<defs>
<clipPath id="clip0_2005_174">
<rect width="49" height="55" fill="white"/>
</clipPath>
</defs>
</svg>
