<?xml version="1.0" encoding="utf-8"?>
<!-- Generator: Adobe Illustrator 25.4.1, SVG Export Plug-In . SVG Version: 6.00 Build 0)  -->
<svg version="1.1" baseProfile="tiny" id="Capa_1" xmlns="http://www.w3.org/2000/svg" xmlns:xlink="http://www.w3.org/1999/xlink"
	 x="0px" y="0px" viewBox="0 0 2119.7 2119.2" overflow="visible" xml:space="preserve">
<path fill="#4285F4" d="M0.4,1617.1c-0.1-3.7-0.3-7.3-0.3-11c0-479-0.1-957.9,0.1-1436.9c0-61.6,26.7-109.5,77.9-143.5
	c25.8-17.1,54.7-25.5,85.8-25.6c3.3,0,6.7,0,10,0c476.8,0,953.5,0,1430.3,0c4.3,0,8.6,0.3,12.9,0.5c0.1,4.3,0.2,8.6,0.2,13
	c0,158.4,0,316.7,0,475.1c0,4.3,0.3,8.6,0.5,12.9c0.1,0.4,0,0.7-0.4,0.9c-4.3-0.2-8.6-0.5-12.9-0.5c-362.4,0-724.7,0-1087.1,0
	c-15.3,0-15.3,0-15.3,15.3c0,366.2,0,732.5,0,1098.7c-4.2,1.4-8.6,0.8-12.9,0.8c-110.6,0-221.2,0-331.8,0
	C105,1617,52.7,1617.1,0.4,1617.1z"/>
<path fill="#34A853" d="M0.4,1617.1c52.3,0,104.6-0.1,156.9-0.1c110.6,0,221.2,0,331.8,0c4.3,0,8.7,0.6,12.9-0.8
	c3.9,1.6,7.9,0.9,11.9,0.9c61.3,0,122.6,0,183.8,0c306.4,0,612.8,0,919.2,0l0.6,0.5c0,164.7,0,329.3,0,494c0,2,0.2,4,0.4,6
	c-4,2.7-8.4,1.4-12.6,1.4c-361.7,0.1-723.3,0-1085,0.1c-116.9,0-233.8-0.2-350.7,0.3C95.5,2119.5,32,2073,8.8,2005.5
	c-5.3-15.5-8.6-31.5-8.7-47.9C-0.1,1845.5,0,1733.3,0,1621.1C0,1619.8,0.3,1618.5,0.4,1617.1z"/>
<path fill="#FBBC04" d="M2119.3,502.1c0.1,3.7,0.2,7.3,0.2,11c0,364,0,728-0.1,1092c0,4.2,1.2,8.6-1.2,12.6c-4-0.1-8-0.4-12-0.4
	c-159.2,0-318.4,0-477.6,0c-3.7,0-7.3,0.2-11,0.3c0,0-0.6-0.5-0.6-0.5c0.2-4.3,0.6-8.6,0.6-12.9c0-363.5,0-727,0-1090.6
	c0-3.7-0.1-7.3-0.2-11c0.4-0.2,0.6-0.5,0.4-0.9c3,0.1,6,0.2,9,0.2c156.5,0,313,0,469.5,0C2104,501.9,2111.6,502,2119.3,502.1z"/>
<path fill="#1967D2" d="M2119.3,502.1c-7.7,0-15.3-0.1-23-0.1c-156.5,0-313,0-469.5,0c-3,0-6-0.1-9-0.2c-0.2-4.3-0.5-8.6-0.5-12.9
	c0-158.4,0-316.7,0-475.1c0-4.3-0.1-8.6-0.2-13c3.3-0.2,6.6-0.6,9.9-0.6c108.5,0,217,0.2,325.5-0.1c78.1-0.2,142.5,53.7,161.2,122.3
	c3.7,13.5,5.8,27.3,5.8,41.3c0,110.8,0,221.6,0,332.4C2119.6,498.1,2119.4,500.1,2119.3,502.1z"/>
<path fill="#EA4335" d="M1617.6,1617.6c3.7-0.1,7.3-0.3,11-0.3c159.2,0,318.4,0,477.6,0c4,0,8,0.2,12,0.4c-2.4,2.7-4.8,5.5-7.3,8.1
	c-161.6,161.5-323.1,323.1-484.7,484.6c-2.6,2.6-4.7,5.7-8.2,7.2c-0.1-2-0.4-4-0.4-6C1617.6,1946.9,1617.6,1782.2,1617.6,1617.6z"/>
<path fill="#4285F4" d="M660.2,866.7c6.9-19.7,16.7-37.3,29-53.6c30.3-39.9,69.5-66.2,118.4-77.9c24.6-5.8,49.6-6,74.5-4.3
	c29.4,2,57.9,8.9,84.5,22c46.8,23,80.8,58,94.2,109c15.2,57.5,4.8,110.2-37.4,154.4c-9.4,9.9-20.2,18.4-31.7,25.7
	c-1.4,0.9-2.9,1.7-4.2,2.6c-2.3,1.7-5.9,2.2-5.8,6.1c0.1,4,3.6,4.2,6.2,5.5c6.7,3.6,13.7,6.9,20.1,11
	c40.9,25.9,69.8,61.1,78.4,109.5c11.1,62.4-3.9,118.2-48.1,164.9c-34.3,36.2-77.4,55.6-125.9,64c-46.7,8-92.3,4.2-136.1-14.1
	c-63-26.3-106.7-71.2-128.5-136.5c-0.3-0.9-0.5-1.9-0.8-2.9c-2.6-8.9-2.7-9,5.7-12.5c17.2-7.1,34.5-14.2,51.7-21.3
	c12-4.9,23.9-9.8,36.3-14.9c3.7,10.4,6.3,20.4,10.9,29.6c14,28.6,33.6,51.9,63.4,65.1c42.9,18.9,101.2,13,139.3-24.1
	c39.5-38.4,38.2-109.7-11.2-144.4c-25.3-17.8-53.2-26.9-84.2-26.5c-16.7,0.2-33.3,0.1-50,0c-8.5,0-8.6-0.2-8.7-8.2
	c-0.1-26.6-0.1-53.3,0-79.9c0-7.4,0.2-7.5,8.1-7.6c20.6-0.4,41.4,1.4,61.9-1.5c28.6-4,53.8-15.2,72.5-38
	c14.2-17.3,19.2-37.7,18-59.7c-2.8-49-40.7-71-74.6-78c-21.1-4.3-42.4-4-63.1,3.2c-30.8,10.7-49.3,33.9-62.7,62.2
	c-5,10.6-4.7,10.9-15.1,6.6c-26.1-10.8-52.2-21.7-78.3-32.5C664.8,869,662.7,867.9,660.2,866.7z"/>
<path fill="#4285F4" d="M1166.1,883.1c11.6-8.4,22.6-16.5,33.7-24.4c50.2-36.2,100.4-72.3,150.6-108.6c3.7-2.6,7.2-4.3,11.8-4.3
	c20,0.2,40,0,59.9,0.1c7.4,0,7.4,0.2,7.6,8c0,1.7,0,3.3,0,5c0,207.4,0,414.8,0,622.2c0,14.7,1.7,12.8-12.6,12.9c-27,0.1-54,0-80.9,0
	c-11.8,0-10.6,0.7-10.6-10.9c0-160.5,0-320.9,0-481.4c0-4,0-8,0-11.8c-3.6-1.4-5.3,1.2-7.3,2.7c-30,21.6-59.9,43.2-89.8,64.9
	c-9,6.5-9,6.6-14.9-2.4C1197.9,931.4,1182.3,907.8,1166.1,883.1z"/>
</svg>
