<?xml version="1.0" encoding="utf-8"?>
<!-- Generator: Adobe Illustrator 25.4.1, SVG Export Plug-In . SVG Version: 6.00 Build 0)  -->
<svg version="1.1" baseProfile="tiny" id="Capa_1" xmlns="http://www.w3.org/2000/svg" xmlns:xlink="http://www.w3.org/1999/xlink"
	 x="0px" y="0px" viewBox="0 0 815.5 815.1" overflow="visible" xml:space="preserve">
<g>
	<path fill="#4285F4" d="M0.2,622c0-1.3-0.1-2.6-0.1-3.8c0-184.3,0-368.7,0-553C0,45.4,7.4,29,22,15.9C33.6,5.6,47.4,0.3,63,0.1
		c1,0,2.1,0,3.1,0c184,0,368.1,0,552.1,0c1.4,0,2.8,0.1,4.2,0.2c0,1.7,0.1,3.3,0.1,5c0,44,0,88,0,132.1c0,18.6,0,37.1,0,55.7
		c0,0.2-0.1,0.3-0.2,0.4c-1.5-0.1-3.1-0.2-4.6-0.2c-139.7,0-279.3,0-419,0c-6.3,0-5.4-0.8-5.4,5.5c0,141,0,282,0,423
		c-1.5,0.4-3.1,0.3-4.6,0.3c-15.9,0-31.8,0-47.7,0C94,622,47.1,622,0.2,622z"/>
	<path fill="#34A853" d="M0.2,622c46.9,0,93.8,0,140.7,0c15.9,0,31.8,0,47.7,0c1.5,0,3.1,0.2,4.6-0.3c1.6,0.5,3.3,0.3,5,0.3
		c76.4,0,152.7,0,229.1,0c65,0,129.9,0,194.9,0c0.1,0.1,0.2,0.2,0.3,0.2c0,1-0.1,2-0.1,3.1c0,61.9,0,123.8,0,185.6
		c0,1.2,0.1,2.3,0.1,3.5c-0.4,0.6-1.1,0.6-1.7,0.7c-1.3,0-2.6,0-3.8,0c-139.6,0-279.1,0-418.7,0c-44.7,0-89.5,0.1-134.2,0
		c-26.2,0-50.1-16.3-59.6-40.4C1.6,767.4,0,759.8,0,751.9c0-42.5,0-85.1,0-127.6C0,623.5,0.1,622.8,0.2,622z"/>
	<path fill="#FBBC04" d="M815.3,193.1c0,1.5,0.1,3.1,0.1,4.6c0,139.9,0,279.7,0,419.6c0,1.6,0.5,3.3-0.5,4.8c-1,0-2-0.1-3.1-0.1
		c-62,0-123.9,0-185.9,0c-1.1,0-2.3,0.1-3.4,0.1c-0.1,0-0.3-0.1-0.3-0.2c0.4-1.6,0.2-3.3,0.2-5c0-139.7,0-279.4,0-419.1
		c0-1.5,0-3.1-0.1-4.6c0.2-0.1,0.2-0.2,0.2-0.4c1.5,0,3.1,0.1,4.6,0.1c37.3,0,74.5,0,111.8,0C764.3,193.1,789.8,193.1,815.3,193.1z"
		/>
	<path fill="#1967D2" d="M815.3,193.1c-25.5,0-51,0-76.4,0c-37.3,0-74.5,0-111.8,0c-1.5,0-3.1-0.1-4.6-0.1c0-18.6,0-37.1,0-55.7
		c0-44,0-88,0-132.1c0-1.7,0-3.3-0.1-5c1.3-0.1,2.5-0.2,3.8-0.2c41.4,0,82.7,0.2,124.1-0.1c27.3-0.2,51.7,16.6,61.2,42
		c2.4,6.5,3.9,13.3,3.9,20.2c0.1,43.1,0,86.3,0,129.4C815.4,192.1,815.3,192.6,815.3,193.1z"/>
	<path fill="#EA4335" d="M622.4,622.3c1.1,0,2.3-0.1,3.4-0.1c62,0,123.9,0,185.9,0c1,0,2,0,3.1,0.1c-0.6,1.2-1.6,1.9-2.5,2.8
		c-62.3,62.3-124.6,124.6-187,186.9c-0.9,0.9-1.6,2-2.9,2.5c0-1.2-0.1-2.3-0.1-3.5c0-61.9,0-123.8,0-185.6
		C622.3,624.3,622.4,623.3,622.4,622.3z"/>
	<path fill="#4285F4" d="M307.9,406.1c0-5.1,0-10.2,0-15.4c0-3.1,0.1-3.1,3.3-3.1c7.7-0.1,15.4,0.5,23-0.5c11.6-1.6,21.7-6,29-15.5
		c9.9-12.9,9.5-36.7-9.1-47.1c-6.7-3.8-13.8-5.8-21.6-6c-7.2-0.1-14,0.7-20.5,4c-9.2,4.7-15.1,12.5-19.4,21.6
		c-2.2,4.6-2.1,4.6-6.6,2.7c-9.7-4-19.4-8.1-29.1-12.1c-3.2-1.3-3.3-1.4-1.8-4.7c3.8-8.9,9-16.9,15.6-24
		c10.9-11.6,24-19.4,39.5-23.1c9.7-2.3,19.6-2.4,29.4-1.7c11.2,0.8,22,3.4,32.1,8.4c21.6,10.8,35.6,27.6,38.2,52.1
		c2.8,25.7-7.4,45.6-29.2,59.6c-1.2,0.8-3.2,1.1-3.2,2.9c0.1,1.9,2.1,2,3.4,2.6c14.1,6.9,25.2,17.1,32.1,31.3
		c5,10.3,6.6,21.3,5.9,32.8c-0.8,11.9-3.9,22.9-10.2,33c-9.8,15.7-23.8,26.3-41.2,32.3c-23.7,8.2-47.3,8.2-70.5-1.7
		c-23.4-10.1-39.6-27.2-47.9-51.5c-0.3-0.8-0.4-1.8-0.8-2.6c-0.9-1.9,0-2.7,1.7-3.4c10.8-4.4,21.6-8.8,32.3-13.2
		c2.5-1,2.5-1,3.3,1.6c2.8,9.8,7.7,18.4,15.1,25.4c7.8,7.4,17.2,11.4,27.9,12.2c12,0.8,23.1-1.8,33.1-8.8
		c19.2-13.5,21.6-41.1,4.6-56.7c-9.8-9-21.7-13.2-35.1-13.3c-6.8,0-13.6,0-20.4,0c-3,0-3-0.1-3-2.9
		C307.8,416.4,307.9,411.2,307.9,406.1z"/>
	<path fill="#4285F4" d="M509.8,341.3c-13.9,10-27.3,19.7-40.8,29.4c-4-6-7.8-11.8-11.6-17.5c-2.5-3.7-5-7.5-7.4-11.2
		c-1.5-2.2-1.5-2.3,0.7-3.9c6.6-4.8,13.3-9.6,19.9-14.4c16.1-11.6,32.2-23.2,48.3-34.8c1.9-1.4,3.7-2.1,6-2.1c7.2,0.1,14.3,0,21.5,0
		c3.7,0,3.7,0,3.7,3.9c0,0.4,0,0.8,0,1.2c0,79.8,0,159.6,0,239.4c0,5.5,0.7,4.9-4.9,4.9c-10.4,0-20.8,0-31.1,0
		c-4.4,0-4.1,0.3-4.1-4.2c0-48.3,0-96.6,0-144.8c0-14.3,0-28.7,0-43C509.9,343.5,509.9,342.9,509.8,341.3z"/>
</g>
</svg>
