<?xml version="1.0" encoding="utf-8"?>
<!-- Generator: Adobe Illustrator 25.4.1, SVG Export Plug-In . SVG Version: 6.00 Build 0)  -->
<svg version="1.1" baseProfile="tiny" id="Capa_1" xmlns="http://www.w3.org/2000/svg" xmlns:xlink="http://www.w3.org/1999/xlink"
	 x="0px" y="0px" viewBox="0 0 541 744" overflow="visible" xml:space="preserve">
<path fill="#FEFEFE" d="M541,698c0,14.7,0,29.5,0,44.2c0,1.5-0.3,1.8-1.8,1.8c-15.1-0.1-30.2,0-45.2,0c0-0.1,0.1-0.3,0.1-0.4
	c6.2-0.4,12.2-1.8,17.7-4.6c16.9-8.5,26.7-22,28.8-40.9C540.7,698,540.8,698,541,698z"/>
<path fill="#FEFEFE" d="M47,743.9c-15.1,0-30.2,0-45.4,0c-1.4,0-1.7-0.3-1.7-1.7c0.1-14.8,0-29.6,0-44.4c0.1,0,0.3,0.1,0.4,0.1
	c1.7,22.8,20.8,43.8,46.5,45.5C47,743.7,47,743.8,47,743.9z"/>
<path fill="#FEFEFE" d="M0,46c0-14.8,0-29.6,0-44.4C0,0.3,0.3,0,1.7,0C16.8,0.1,31.9,0,47,0C47,0.2,47,0.3,47,0.4
	c-6.2,0.4-12.2,1.8-17.7,4.6C12.4,13.5,2.6,27,0.5,45.9C0.3,46,0.2,46,0,46z"/>
<path fill="#FECA3F" d="M0,46c0.1,0,0.3-0.1,0.4-0.1c0,1.4,0.1,2.8,0.1,4.2c0,214.5,0,429.1,0,643.6c0,1.4,0,2.8-0.1,4.2
	C0.3,698,0.2,698,0,698C0,480.6,0,263.3,0,46z"/>
<path fill="#FECA3F" d="M541,698c-0.1,0-0.3,0.1-0.4,0.1c0-1.4-0.1-2.8-0.1-4.2c0-168.3,0-336.6,0-504.8c0-1-0.1-2-0.1-3
	c0,0,0.1,0,0.1,0l0.2,0c0.1-0.1,0.2-0.1,0.3,0C541,356.7,541,527.3,541,698z"/>
<path fill="#FEDB7F" d="M47,743.9c0-0.1-0.1-0.3-0.1-0.4c1.1,0,2.2-0.1,3.2-0.1c146.9,0,293.7,0,440.6,0c1.1,0,2.2,0.1,3.2,0.1
	c0,0.1,0,0.3-0.1,0.4C345,743.9,196,743.9,47,743.9z"/>
<path fill="#FEDB7F" d="M47,0.4C47,0.3,47,0.2,47,0c102.8,0,205.6,0,308.4,0c0,0.2,0,0.4,0,0.5c-0.2,0-0.3,0-0.5,0.1
	c-1.1,0-2.2-0.1-3.2-0.1c-100.4,0-200.9,0-301.3,0C49.3,0.5,48.1,0.5,47,0.4z"/>
<path fill="#FE9400" d="M355,0.6c0.2,0,0.3,0,0.5-0.1c35.4,35.5,70.9,70.9,106.3,106.4c25.7,25.7,51.3,51.4,77,77
	c0.6,0.6,1.2,1.3,1.9,2c0,0-0.2,0-0.2,0s-0.1,0-0.1,0c-61,0-121.9,0-182.9,0.1c-2.6,0-2.5-1.3-2.5-3.1C355,122.2,355,61.4,355,0.6z"
	/>
<path fill="#FEB900" d="M355,0.6c0,60.8,0,121.6,0,182.4c0,1.8-0.1,3.1,2.5,3.1c61-0.1,121.9-0.1,182.9-0.1c0,1,0.1,2,0.1,3
	c0,168.3,0,336.6,0,504.8c0,1.4,0,2.8,0.1,4.2c-2.1,18.9-11.9,32.4-28.8,40.9c-5.5,2.8-11.5,4.3-17.7,4.6c-1.1,0-2.2-0.1-3.2-0.1
	c-146.9,0-293.7,0-440.6,0c-1.1,0-2.2,0.1-3.2,0.1c-25.7-1.7-44.8-22.7-46.5-45.5c0-1.4,0.1-2.8,0.1-4.2c0-214.5,0-429.1,0-643.6
	c0-1.4,0-2.8-0.1-4.2C2.6,27,12.4,13.5,29.2,5.1C34.8,2.3,40.7,0.8,47,0.4c1.2,0,2.3,0.1,3.5,0.1c100.4,0,200.9,0,301.3,0
	C352.8,0.5,353.9,0.6,355,0.6z M270.4,456.5c18.7,0,37.5,0,56.2,0c1.2,0,2.3,0,3.3-0.7c30.9-21,47.6-50.2,50-87.5
	c0.4-6.7-0.1-13.4-1-20.1c-1.6-11.6-5-22.7-10.2-33.2c-7.3-14.7-17.4-27.1-30.3-37.3c-9.3-7.4-19.5-13.1-30.6-17.2
	c-13.6-5-27.6-7.2-42.1-6.5c-6.3,0.3-12.6,0.8-18.7,2.2c-48.7,11-82.4,51-86.4,100.1c-0.6,7.4-0.3,15,0.9,22.5
	c5.1,32.3,21.1,57.7,48,76.3c1.5,1,3,1.5,4.8,1.5C233.1,456.5,251.8,456.5,270.4,456.5z M270.5,498.6c-18.8,0-37.7,0-56.5,0
	c-2.1,0-2.9,0.3-2.9,2.7c0.1,12.5,0.1,25,0,37.5c0,1.9,0.5,2.3,2.4,2.3c38-0.1,76-0.1,113.9,0c1.9,0,2.4-0.5,2.3-2.4
	c-0.1-12.5-0.1-25,0-37.5c0-2-0.5-2.7-2.6-2.7C308.3,498.6,289.4,498.6,270.5,498.6z"/>
</svg>
