<svg width="55" height="55" viewBox="0 0 55 55" fill="none" xmlns="http://www.w3.org/2000/svg">
<g clip-path="url(#clip0_2005_233)">
<path d="M46.9259 29.9858C51.3808 29.8757 54.9999 26.1468 54.9999 21.6918C54.9999 17.0609 51.217 13.322 46.5421 13.3869V13.3319C46.5421 5.98499 40.5571 0 33.209 0C28.3482 0 23.9142 2.64105 21.5613 6.81993C20.1423 5.99495 18.5022 5.54386 16.8424 5.54386C11.8583 5.54386 7.76752 9.42791 7.4485 14.3218C3.30056 14.5309 0.000488281 17.9628 0.000488281 22.1536C0.000488281 26.4777 3.52047 29.9965 7.84339 29.9965H9.23054L46.9051 29.9855H46.9259V29.9858Z" fill="#1784C7"/>
<path d="M50.9082 34.9589C49.0272 34.9589 47.4652 36.2228 46.9812 37.9498H43.6042V32.1858H41.4043V39.0497C41.4043 39.6547 41.8882 40.1496 42.5043 40.1496H46.9812C47.4652 41.8777 49.0273 43.1416 50.9082 43.1416C53.1631 43.1416 55.0001 41.3045 55.0001 39.0497C55.0001 36.7948 53.1631 34.9589 50.9082 34.9589ZM50.9082 40.9416C49.8632 40.9416 49.0052 40.0947 49.0052 39.0497C49.0052 38.0047 49.8632 37.1587 50.9082 37.1587C51.9531 37.1587 52.8001 38.0047 52.8001 39.0497C52.8001 40.0947 51.9531 40.9416 50.9082 40.9416Z" fill="#1784C7"/>
<path d="M34.0664 32.1858V48.6305C34.0664 49.2355 34.5614 49.7306 35.1664 49.7306H40.9205C41.4044 51.4466 42.9774 52.7225 44.8474 52.7225C47.1024 52.7225 48.9393 50.8856 48.9393 48.6307C48.9393 46.3757 47.1024 44.5397 44.8474 44.5397C42.9774 44.5397 41.4044 45.8037 40.9205 47.5306H36.2665V32.1858H34.0664ZM44.8473 46.7397C45.8912 46.7397 46.7393 47.5856 46.7393 48.6305C46.7393 49.6756 45.8912 50.5225 44.8473 50.5225C43.8023 50.5225 42.9542 49.6756 42.9542 48.6305C42.9543 47.5856 43.8023 46.7397 44.8473 46.7397Z" fill="#1784C7"/>
<path d="M26.4002 32.1972V46.9811C24.6742 47.4651 23.4082 49.0271 23.4082 50.908C23.4082 53.163 25.2451 54.9999 27.5002 54.9999C29.7551 54.9999 31.5921 53.163 31.5921 50.908C31.5921 49.027 30.3172 47.4651 28.6001 46.9811V32.1862L26.4002 32.1972ZM29.392 50.9079C29.392 51.9529 28.5451 52.7998 27.5001 52.7998C26.4551 52.7998 25.6081 51.9529 25.6081 50.9079C25.6081 49.863 26.4551 49.016 27.5001 49.016C28.5451 49.016 29.392 49.863 29.392 50.9079Z" fill="#1784C7"/>
<path d="M4.09198 43.1417C5.96187 43.1417 7.53597 41.8777 8.01883 40.1498H12.2219C12.8368 40.1498 13.3219 39.6548 13.3219 39.0498V32.1968H11.122V37.9498H8.01883C7.53597 36.2228 5.96187 34.9589 4.09198 34.9589C1.83693 34.9589 0 36.7948 0 39.0498C0 41.3047 1.83693 43.1417 4.09198 43.1417ZM4.09198 37.1589C5.13688 37.1589 5.98499 38.0048 5.98499 39.0498C5.98499 40.0947 5.13688 40.9418 4.09198 40.9418C3.04803 40.9418 2.20005 40.0949 2.20005 39.0498C2.20005 38.0048 3.04803 37.1589 4.09198 37.1589Z" fill="#1784C7"/>
<path d="M13.8046 47.5307C13.3216 45.8037 11.7487 44.5398 9.8787 44.5398C7.62376 44.5398 5.78564 46.3756 5.78564 48.6307C5.78564 50.8856 7.62364 52.7226 9.8787 52.7226C11.7487 52.7226 13.3216 51.4466 13.8046 49.7306H19.5586C20.1636 49.7306 20.6587 49.2356 20.6587 48.6306V32.1968H18.4586V47.5307H13.8046ZM9.8787 50.5226C8.8338 50.5226 7.98557 49.6757 7.98557 48.6307C7.98557 47.5858 8.83368 46.7398 9.8787 46.7398C10.9237 46.7398 11.7706 47.5858 11.7706 48.6307C11.7706 49.6756 10.9236 50.5226 9.8787 50.5226Z" fill="#1784C7"/>
</g>
<defs>
<clipPath id="clip0_2005_233">
<rect width="55" height="55" fill="white"/>
</clipPath>
</defs>
</svg>
