<svg width="55" height="55" viewBox="0 0 55 55" fill="none" xmlns="http://www.w3.org/2000/svg">
<path d="M21.1923 12.65H20.3845V16.8395H21.1923V12.65ZM24.6685 12.65H23.8606V16.8395H24.6685V12.65ZM29.4208 4.65781L28.5915 3.22266L14.7642 11.2148L15.5935 12.65L29.4208 4.65781Z" fill="#1784C7"/>
<path d="M29.3389 4.65781L30.1682 3.22266L43.9955 11.2148L43.1662 12.65L29.3389 4.65781Z" fill="#1784C7"/>
<path d="M46.4408 12.6715V11.0129H8.55957V12.6715H46.4408Z" fill="#1784C7"/>
<path d="M31.44 36.0981V11.5156H33.0986V37.2883C32.6561 36.7856 32.0889 36.4203 31.44 36.0981ZM28.6127 35.6727V0.996887H30.2713V35.8746C29.8029 35.6512 28.6728 35.6727 28.6127 35.6727ZM12.9076 39.1317C10.8881 37.6363 9.55176 35.2473 9.55176 32.5359C9.55176 31.1008 9.93418 29.6828 10.6432 28.4496H24.7928C25.5189 29.6828 25.8842 31.1008 25.8842 32.5359C25.8842 33.7906 25.7209 34.9637 25.2182 36.0164C24.1482 34.9852 22.5713 34.5383 20.9729 34.5383C18.1412 34.5383 15.7178 36.3 15.0904 38.9297C14.867 38.9082 14.7252 38.891 14.5061 38.891C13.9561 38.9082 13.4318 38.9899 12.9076 39.1317Z" fill="#1784C7"/>
<path d="M19.8602 18.7H15.5762V23.0098H19.8602V18.7ZM15.0262 18.7H10.7422V23.0098H15.0262V18.7ZM15.0262 23.4953H10.7422V27.8051H15.0262V23.4953ZM19.8602 23.4953H15.5762V27.8051H19.8602V23.4953ZM24.6684 23.4953H20.3844V27.8051H24.6684V23.4953ZM24.6684 16.3926H20.3844V20.7023H24.6684V16.3926Z" fill="#1784C7"/>
<path d="M15.7951 39.7804C16.3795 37.2926 18.6268 35.432 21.2951 35.432C23.0139 35.432 24.5479 36.2011 25.6006 37.4172C26.5115 36.7898 27.6029 36.4246 28.7932 36.4246C31.9041 36.4246 34.4307 38.9511 34.4307 42.0707C34.4307 42.7195 34.3318 43.3254 34.1299 43.9097C34.8174 44.8422 35.2428 46.0152 35.2428 47.2699C35.2428 50.3851 32.7162 52.916 29.601 52.916C28.226 52.916 26.9713 52.4304 26.0045 51.6226C24.9732 53.0578 23.2975 54.0117 21.3939 54.0117C19.2111 54.0117 17.3119 52.757 16.3623 50.9351C15.9799 51.0168 15.5932 51.0554 15.1893 51.0554C12.0783 51.0554 9.53027 48.5246 9.53027 45.4094C9.53027 42.2941 12.0568 39.7633 15.1893 39.7633C15.3912 39.7418 15.5932 39.7418 15.7951 39.7804Z" fill="#1784C7"/>
</svg>
