<svg width="55" height="55" viewBox="0 0 55 55" fill="none" xmlns="http://www.w3.org/2000/svg">
<path d="M54.3599 25.6189C53.524 24.2711 52.0469 23.4654 50.4088 23.4654H13.9323C12.1242 23.4654 10.4797 24.4846 9.74158 26.0628L0.09375 46.2913C0.457978 47.7725 1.84145 48.8791 3.48929 48.8791H42.2976C43.9567 48.8791 45.4732 47.9408 46.2143 46.4562L54.5533 29.742C55.2117 28.4194 55.1387 26.8781 54.3599 25.6189Z" fill="#5A595B"/>
<path d="M7.7776 22.9514C8.51487 21.3736 10.1598 20.3539 11.9683 20.3539H46.3169V15.9605C46.3169 14.1495 44.7891 12.6758 42.9113 12.6758H22.883C22.8536 12.6758 22.8335 12.6682 22.8259 12.6628L19.2411 7.65045C18.6062 6.76128 17.5576 6.23047 16.4372 6.23047H3.40645C1.52783 6.23047 0 7.70416 0 9.51523V39.2577L7.7776 22.9514Z" fill="#5A595B"/>
</svg>
