<?xml version="1.0" encoding="utf-8"?>
<!-- Generator: Adobe Illustrator 25.4.1, SVG Export Plug-In . SVG Version: 6.00 Build 0)  -->
<svg version="1.1" baseProfile="tiny" id="Capa_1" xmlns="http://www.w3.org/2000/svg" xmlns:xlink="http://www.w3.org/1999/xlink"
	 x="0px" y="0px" viewBox="0 0 458.2 457.9" overflow="visible" xml:space="preserve">
<path fill="#F37B01" d="M455,23c2.9,4.7,3.1,10,3.1,15.3c0,127.6,0,255.2,0,382.9c0,3.4-0.3,6.6-1.2,9.9
	c-4.1,15.4-18.5,26.8-34.5,26.8c-39.7,0.1-79.3,0.1-119,0c-0.8,0-1.7-0.1-2.5-0.2c0-103.3,0-206.5,0.1-309.8c0-1,0-2,0-3
	c0,0,0.1,0.1,0.1,0.1c0.5,0.2,1.1,0.2,1.4,0.5c10.8,10.9,21.5,21.8,32.3,32.7c1.1,1.1,2,3.1,4,2.3c3.3-1.4,4.9,0.7,6.8,2.6
	c5.4,5.4,10.8,10.8,16.3,16.3c0.8,0.8,1.7,1.8,3,1.3c1.4-0.5,1.1-1.9,1.1-3c0-0.8,0-1.7,0-2.5c0-60.8,0-121.6,0-182.4c0-1,0-2,0-3
	c0-2.5-1.1-3.7-3.6-3.7c-6.3,0.1-12.7,0-18.9,0.4c-2.1,0.1-3.7-0.3-3.8-2c-0.1-2.3,2.2-1.4,3.4-1.4c26.2-0.1,52.3-0.4,78.5,0.1
	c13.1,0.3,24.1,5.6,30.9,17.7C453.1,21.9,453.6,22.9,455,23z"/>
<path fill="#FEC417" d="M301.1,147.9c0,103.3,0,206.5-0.1,309.8c-13.8,0.1-27.6,0.2-41.5,0.2c-30.1,0-60.3-0.1-90.4-0.2
	c0.2-3.1-1.9-2.9-4-2.9c-10.5,0-21,0-31.4,0c-6.6,0-6.6,0-6.6-6.4c0-44.6,0-89.1,0-133.7c0-2.3,0.4-4.7-0.5-6.9
	c-0.9-2.4,0.5-2.9,2.5-2.9c4,0,8-0.1,12,0c3,0.1,4.4-1.2,4-4.2c0-40.3,0.1-80.5,0.1-120.8c1.3-0.9,1.3-1.9,0.2-2.9
	c0-0.7,0.1-1.4,0.1-2c1.5-0.2,1.5-1.4,1.9-2.5c4.8-14.7,18.2-24.5,33.4-24.5C220.8,147.9,261,147.9,301.1,147.9z"/>
<path fill="#FEC92B" d="M145.1,300.7c0.4,3-1,4.3-4,4.2c-4-0.1-8,0-12,0c-2,0-3.4,0.6-2.5,2.9c0.8,2.3,0.5,4.6,0.5,6.9
	c0,44.6,0,89.1,0,133.7c0,6.4,0,6.4,6.6,6.4c10.5,0,21,0,31.4,0c2.1,0,4.2-0.1,4,2.9c-5.2,0.1-10.3,0.2-15.5,0.2
	c-38.6,0-77.2,0-115.9,0c-22.3,0-37.7-15.5-37.7-37.6c0-27,0.5-53.9-0.2-80.9c-0.5-20.6,15.4-38.5,38.3-38.3
	c33.6,0.3,67.2,0.1,100.9,0C141.1,301.2,143.1,301.5,145.1,300.7z"/>
<path fill="#F48008" d="M455,23c-1.4,0-1.9-1.1-2.5-2.1c-6.7-12.1-17.8-17.4-30.9-17.7c-26.1-0.5-52.3-0.2-78.5-0.1
	c-1.2,0-3.5-0.9-3.4,1.4c0.1,1.7,1.7,2.1,3.8,2c6.3-0.4,12.6-0.3,18.9-0.4c2.5,0,3.7,1.2,3.6,3.7c0,1,0,2,0,3
	c0,60.8,0,121.6,0,182.4c0,0.8,0,1.7,0,2.5c-0.1,1.1,0.3,2.5-1.1,3c-1.3,0.5-2.2-0.5-3-1.3c-5.4-5.4-10.9-10.8-16.3-16.3
	c-1.9-1.9-3.6-4-6.8-2.6c-2,0.9-2.9-1.2-4-2.3c-10.8-10.9-21.5-21.8-32.3-32.7c-0.3-0.3-0.9-0.3-1.4-0.5c0-35.7,0-71.3,0.2-107
	c0.1-12.9,5-23.6,15.7-31.3c5.9-4.3,12.6-6.6,20-6.6c28.5,0,57-0.1,85.5,0C437.1,0.1,451.3,10.3,455,23z"/>
<path fill="#FEC92B" d="M301.1,147.9c-40.1,0-80.3,0-120.4,0c-15.3,0-28.7,9.8-33.4,24.5c-0.4,1.1-0.3,2.3-1.9,2.5
	c2.2-17,16.5-30.1,34.8-30.3c39.3-0.4,78.6-0.1,117.9-0.1c1,0,2,0.3,3,0.4C301.1,145.9,301.1,146.9,301.1,147.9z"/>
<path fill="#FEC92B" d="M145.3,177c1.1,1.1,1.1,2-0.2,2.9C144.4,178.9,144.5,177.9,145.3,177z"/>
</svg>
