<?xml version="1.0" encoding="utf-8"?>
<!-- Generator: Adobe Illustrator 25.4.1, SVG Export Plug-In . SVG Version: 6.00 Build 0)  -->
<svg version="1.1" baseProfile="tiny" id="Capa_1" xmlns="http://www.w3.org/2000/svg" xmlns:xlink="http://www.w3.org/1999/xlink"
	 x="0px" y="0px" viewBox="0 0 248.1 204" overflow="visible" xml:space="preserve">
<path fill="#1CAA4D" d="M197.2,54.7c8.6-7,17.2-13.9,25.8-20.9c3.5-2.8,7-5.6,10.4-8.5c3-2.6,6.4-3.3,10-1.6
	c3.6,1.7,4.7,4.9,4.7,8.6c0,21.4,0,42.8,0,64.2c0,25.4,0,50.8,0,76.1c0,3.9-1,7.1-4.6,9c-3.6,1.9-6.9,1.1-10-1.4
	c-10.9-9-21.9-18-32.8-26.9c-1-0.8-1.8-1.9-3.1-2.2c-0.7,1.2-0.4,2.4-0.4,3.5c0,10.5,0,21,0,31.5c0,10.2-7.3,17.8-17.4,17.8
	c-39.9,0.1-79.8,0-119.6,0c-0.3,0-0.6-0.1-0.9-0.1c-0.2-0.6-0.7-0.5-1.1-0.6c0-14.4,0-28.8,0-43.1c0-4.8,0.1-9.6,0.2-14.4
	c26.6,0,53.2,0,79.8,0.1c2.2,0,2.4-1,2.4-2.7c-0.1-10.4,0-20.8,0-31.2c0-3.4,0.1-6.8,0.2-10.2c10.1-8.3,20.2-16.6,30.2-25
	C179.6,69.5,188.4,62.1,197.2,54.7z"/>
<path fill="#FAB92C" d="M197.2,54.7c-8.8,7.4-17.6,14.8-26.4,22.1c-10.1,8.4-20.2,16.7-30.2,25c-0.1-1.3-0.2-2.6-0.2-3.9
	c0-12.2-0.1-24.4,0-36.5c0-2.7-0.9-3.3-3.4-3.3c-23.7,0.1-47.3,0.1-71,0.1c-2.6,0-5.2,0.1-7.8,0.1C58.1,58.2,58,58.1,58,58
	c0-19.2,0-38.3,0.1-57.5C58.8-0.2,59.8,0,60.6,0c39.1,0,78.3,0,117.4,0c5.9,0,11,1.5,14.9,6.1c2.9,3.4,4.2,7.4,4.2,11.8
	C197.2,30.2,197.2,42.4,197.2,54.7z"/>
<path fill="#3886F6" d="M58.2,145.7c-0.1,4.8-0.2,9.6-0.2,14.4c0,14.4,0,28.8,0,43.1c-14.7,0-29.4,0-44.1,0.1
	c-7.6-0.4-13.9-8.1-14-17c0-15.4,0-30.7,0-46.1c0-26.3,0-52.5,0-78.8c0-1.2-0.3-2.4,0.5-3.5c19.2,0,38.3,0,57.5,0
	c0,0.1,0.1,0.2,0.2,0.3C58.2,87.4,58.2,116.6,58.2,145.7z"/>
<path fill="#E2433D" d="M58,58c-19.2,0-38.3,0-57.5,0C9.8,48.7,19,39.4,28.2,30.1C37.9,20.3,47.6,10.7,57.3,1
	c0.2-0.2,0.5-0.3,0.8-0.4C58.1,19.7,58.1,38.9,58,58z"/>
<path fill="#626469" d="M14,203.3c14.7,0,29.4,0,44.1-0.1c0.4,0.1,1,0.1,1.1,0.6c-14.2,0-28.4,0.1-42.6,0.1
	C15.6,203.9,14.7,204,14,203.3z"/>
<path fill="#FEFEFE" d="M58.2,145.7c0-29.2,0-58.3,0-87.5c2.6,0,5.2-0.1,7.8-0.1c23.7,0,47.3,0,71-0.1c2.6,0,3.4,0.6,3.4,3.3
	c-0.1,12.2,0,24.4,0,36.5c0,1.3,0.1,2.6,0.2,3.9c-0.1,3.4-0.2,6.8-0.2,10.2c0,10.4,0,20.8,0,31.2c0,1.7-0.2,2.7-2.4,2.7
	C111.4,145.8,84.8,145.8,58.2,145.7z"/>
</svg>
