<?xml version="1.0" encoding="utf-8"?>
<!-- Generator: Adobe Illustrator 25.4.1, SVG Export Plug-In . SVG Version: 6.00 Build 0)  -->
<svg version="1.1" baseProfile="tiny" id="Capa_1" xmlns="http://www.w3.org/2000/svg" xmlns:xlink="http://www.w3.org/1999/xlink"
	 x="0px" y="0px" viewBox="0 0 676.1 644" overflow="visible" xml:space="preserve">
<path fill="#1B73E7" d="M32.7,643.7c1.7-1.8,2.8-3,4-4.2c72.3-72.3,144.7-144.6,216.9-217.1c3.2-3.3,5.1-3,8.4-0.4
	c40,30.2,80.2,60.2,120.2,90.4c3.2,2.4,4.9,2.2,7.7-0.6c56.7-56.4,113.4-112.8,170.3-169c3.1-3,3.3-4.5,0.1-7.7
	c-13.9-13.5-27.4-27.2-41.1-40.9c-1.1-1.1-2.7-1.9-2.9-3.8c1.4-0.9,2.9-0.4,4.3-0.4c50,0,100,0,150-0.1c4.5,0,5.5,1.1,5.4,5.5
	c-0.2,50.1-0.1,100.3-0.1,150.5c0,1.3,0,2.6,0,4c-2,0.1-2.7-1.5-3.7-2.5c-13.2-13.2-26.5-26.3-39.5-39.6c-3.3-3.4-5-3.9-8.7-0.2
	C546.2,485,468.2,562.5,390.3,640.2c-3.4,3.4-5.2,3.2-8.8,0.5c-40-30.2-80.2-60.2-120.2-90.4c-3-2.2-4.5-2.2-7.2,0.5
	c-29.8,30-59.8,59.9-89.7,89.8c-1.9,1.9-3.6,3.5-6.8,3.5c-40.7-0.1-81.3-0.1-122-0.1C35.1,644,34.4,643.9,32.7,643.7z"/>
<path fill="#34A853" d="M321.2,186.2c0.9-1.9,0.5-3.9,0.5-5.9c0-48.2,0.5-96.3-0.2-144.5C321.1,15.3,335.9-0.4,357.3,0
	c30,0.6,60,0.1,90,0.2c21.9,0,35.3,13.4,35.3,35.1c0,104.8,0,209.6,0.1,314.4c0,3-0.6,5.3-2.9,7.5c-30.6,30.2-61.1,60.5-91.6,90.8
	c-1.7,1.7-2.8,3.1-5.6,1c-19.8-15.2-39.8-30.2-59.7-45.3c-0.6-0.5-1.1-1.2-1.7-1.8c0.8-1.7,0.5-3.6,0.5-5.4c0-67.1,0-134.2,0-201.3
	C321.7,192.1,321.3,189.2,321.2,186.2z"/>
<path fill="#FABB05" d="M321.2,186.2c0.2,3,0.5,6,0.5,9c0,67.1,0,134.2,0,201.3c0,1.8,0.4,3.7-0.5,5.4c-20-14.9-40.1-29.7-59.9-44.8
	c-3.1-2.4-4.7-1.9-7.2,0.7c-29.6,29.9-59.3,59.8-89,89.6c-1.3,1.3-2.2,3-4.1,3.4c-0.1-34.5-0.2-69.1-0.2-103.6
	c0.1-50.5,0.2-100.9,0.3-151.4c0-21.1,13.5-34.6,34.7-34.6c30.5-0.1,61,0,91.4,0C304.6,161.1,315.8,169.4,321.2,186.2z"/>
<path fill="#E94335" d="M160.7,347.1c0.1,34.5,0.2,69.1,0.2,103.6c-24.4,24.6-48.8,49.2-73.2,73.8C60,552.4,32.3,580.3,4.7,608.2
	c-1.3,1.3-2.1,2.9-3.2,4.4c-0.5-0.3-1-0.6-1.5-0.9c0-1.6,0-3.1,0-4.7c0-83.4,0-166.9,0-250.3c0-21.1,13.5-34.5,34.7-34.6
	c30.5,0,61,0,91.4,0c16.1,0,26.5,7.1,32.8,22.1C159.4,345.2,160.1,346.1,160.7,347.1z"/>
</svg>
