<svg width="55" height="55" viewBox="0 0 55 55" fill="none" xmlns="http://www.w3.org/2000/svg">
<path d="M50.4168 4.58331H48.5835C48.5835 5.31266 48.2938 6.01213 47.778 6.52786C47.2623 7.04358 46.5628 7.33331 45.8335 7.33331C45.1042 7.33331 44.4047 7.04358 43.889 6.52786C43.3732 6.01213 43.0835 5.31266 43.0835 4.58331H39.4168C39.4168 5.31266 39.1271 6.01213 38.6114 6.52786C38.0956 7.04358 37.3962 7.33331 36.6668 7.33331C35.9375 7.33331 35.238 7.04358 34.7223 6.52786C34.2066 6.01213 33.9168 5.31266 33.9168 4.58331H30.2502C30.2502 5.31266 29.9604 6.01213 29.4447 6.52786C28.929 7.04358 28.2295 7.33331 27.5002 7.33331C26.7708 7.33331 26.0713 7.04358 25.5556 6.52786C25.0399 6.01213 24.7502 5.31266 24.7502 4.58331H21.0835C21.0835 5.31266 20.7938 6.01213 20.278 6.52786C19.7623 7.04358 19.0628 7.33331 18.3335 7.33331C17.6042 7.33331 16.9047 7.04358 16.389 6.52786C15.8732 6.01213 15.5835 5.31266 15.5835 4.58331H11.9168C11.9168 5.31266 11.6271 6.01213 11.1114 6.52786C10.5956 7.04358 9.89618 7.33331 9.16683 7.33331C8.43748 7.33331 7.73801 7.04358 7.22229 6.52786C6.70656 6.01213 6.41683 5.31266 6.41683 4.58331H4.5835C3.85415 4.58331 3.15468 4.87304 2.63895 5.38877C2.12323 5.90449 1.8335 6.60397 1.8335 7.33331V9.16665H53.1668V7.33331C53.1668 6.60397 52.8771 5.90449 52.3614 5.38877C51.8456 4.87304 51.1462 4.58331 50.4168 4.58331Z" fill="#1784C7"/>
<path d="M1.8335 47.6667C1.8335 48.396 2.12323 49.0955 2.63895 49.6112C3.15468 50.1269 3.85415 50.4167 4.5835 50.4167H13.2002C12.2034 49.475 11.4121 48.3375 10.8757 47.0756C10.3394 45.8136 10.0697 44.4545 10.0835 43.0833C10.0835 33.5225 17.4352 28.4212 20.8635 26.5613C20.602 26.2696 20.4063 25.925 20.2899 25.5508C20.1735 25.1767 20.139 24.7819 20.1889 24.3933C20.2387 24.0047 20.3717 23.6314 20.5787 23.2987C20.7858 22.9661 21.0621 22.682 21.3887 22.4657L18.7836 19.184C18.5336 18.849 18.3818 18.4511 18.345 18.0347C18.3082 17.6184 18.388 17.2 18.5753 16.8264C18.7627 16.4528 19.0503 16.1386 19.406 15.9191C19.7617 15.6996 20.1714 15.5833 20.5894 15.5833H21.3823C21.3081 15.2534 21.309 14.911 21.385 14.5815C21.4611 14.2519 21.6102 13.9437 21.8215 13.6796C22.0327 13.4156 22.3007 13.2024 22.6055 13.0559C22.9103 12.9094 23.2441 12.8333 23.5823 12.8333H31.4198C31.758 12.8333 32.0919 12.9094 32.3967 13.0559C32.7015 13.2024 32.9694 13.4156 33.1807 13.6796C33.392 13.9437 33.5411 14.2519 33.6171 14.5815C33.6931 14.911 33.6941 15.2534 33.6198 15.5833H34.4127C34.8268 15.5833 35.2328 15.6974 35.5862 15.913C35.9397 16.1286 36.2269 16.4375 36.4163 16.8056C36.6057 17.1738 36.6901 17.587 36.66 17.9999C36.63 18.4129 36.4868 18.8095 36.2461 19.1464L33.6134 22.4657C33.9401 22.682 34.2164 22.9661 34.4234 23.2987C34.6305 23.6314 34.7634 24.0047 34.8133 24.3933C34.8631 24.7819 34.8287 25.1767 34.7122 25.5508C34.5958 25.925 34.4002 26.2696 34.1387 26.5613C37.5652 28.4212 44.9168 33.5225 44.9168 43.0833C44.9306 44.4545 44.6609 45.8136 44.1246 47.0756C43.5883 48.3375 42.7969 49.475 41.8002 50.4167H50.4168C51.1462 50.4167 51.8456 50.1269 52.3614 49.6112C52.8771 49.0955 53.1668 48.396 53.1668 47.6667V11H1.8335V47.6667Z" fill="#1784C7"/>
<path d="M22.9167 25.6666H32.0833C32.3264 25.6666 32.5596 25.5701 32.7315 25.3982C32.9034 25.2263 33 24.9931 33 24.75C33 24.5069 32.9034 24.2737 32.7315 24.1018C32.5596 23.9299 32.3264 23.8333 32.0833 23.8333H22.9167C22.6736 23.8333 22.4404 23.9299 22.2685 24.1018C22.0966 24.2737 22 24.5069 22 24.75C22 24.9931 22.0966 25.2263 22.2685 25.3982C22.4404 25.5701 22.6736 25.6666 22.9167 25.6666Z" fill="#1784C7"/>
<path d="M24.1397 19.25C23.9887 19.2502 23.8399 19.213 23.7067 19.1419C23.5735 19.0707 23.4599 18.9677 23.3761 18.8421L22.4264 17.4167H20.5931C20.516 17.4169 20.4403 17.4383 20.3745 17.4785C20.3087 17.5188 20.2552 17.5763 20.22 17.645C20.1847 17.7136 20.1689 17.7905 20.1744 17.8675C20.1799 17.9444 20.2065 18.0184 20.2512 18.0813L23.3596 22H31.6408L34.7804 18.0437C34.8167 17.9834 34.8358 17.9143 34.8358 17.8439C34.8358 17.7734 34.8167 17.7044 34.7804 17.644C34.7468 17.5749 34.6943 17.5167 34.6288 17.4765C34.5634 17.4362 34.4878 17.4155 34.4109 17.4167H32.5776L31.6252 18.8421C31.4903 19.0444 31.2805 19.1848 31.0421 19.2324C30.8036 19.28 30.5561 19.231 30.3538 19.096C30.1515 18.9611 30.0111 18.7513 29.9635 18.5129C29.9159 18.2745 29.9649 18.0269 30.0999 17.8246L31.7691 15.3203C31.8115 15.257 31.8359 15.1833 31.8397 15.1072C31.8435 15.0311 31.8264 14.9554 31.7904 14.8883C31.7545 14.8211 31.7009 14.765 31.6354 14.7259C31.57 14.6869 31.4951 14.6664 31.4189 14.6667H23.5814C23.5053 14.6664 23.4306 14.6868 23.3652 14.7258C23.2999 14.7648 23.2464 14.8209 23.2105 14.888C23.1746 14.9551 23.1576 15.0307 23.1614 15.1067C23.1653 15.1827 23.1897 15.2562 23.2322 15.3194L24.9014 17.8246C24.9935 17.9626 25.0464 18.123 25.0545 18.2887C25.0626 18.4543 25.0256 18.6191 24.9474 18.7654C24.8692 18.9117 24.7528 19.034 24.6105 19.1194C24.4683 19.2047 24.3056 19.2499 24.1397 19.25Z" fill="#1784C7"/>
<path d="M28.4165 46.5813C28.9523 46.3946 29.4168 46.0458 29.7455 45.5833C30.0741 45.1208 30.2507 44.5674 30.2507 44C30.2507 43.4326 30.0741 42.8792 29.7455 42.4167C29.4168 41.9541 28.9523 41.6053 28.4165 41.4186V46.5813Z" fill="#1784C7"/>
<path d="M31.9053 27.5H23.0943C21.7129 28.0729 11.9165 32.5132 11.9165 43.0833C11.9165 50.5258 20.3113 53.1667 27.4998 53.1667C34.6883 53.1667 43.0832 50.5258 43.0832 43.0833C43.0832 32.5132 33.2868 28.0729 31.9053 27.5ZM32.0832 44C32.0818 45.0562 31.7164 46.0796 31.0485 46.8978C30.3806 47.716 29.451 48.2789 28.4165 48.4917V48.5833C28.4165 48.8264 28.3199 49.0596 28.148 49.2315C27.9761 49.4034 27.743 49.5 27.4998 49.5C27.2567 49.5 27.0236 49.4034 26.8517 49.2315C26.6797 49.0596 26.5832 48.8264 26.5832 48.5833V48.4917C25.5486 48.2789 24.6191 47.716 23.9512 46.8978C23.2833 46.0796 22.9178 45.0562 22.9165 44C22.9165 43.7569 23.0131 43.5237 23.185 43.3518C23.3569 43.1799 23.5901 43.0833 23.8332 43.0833C24.0763 43.0833 24.3094 43.1799 24.4814 43.3518C24.6533 43.5237 24.7498 43.7569 24.7498 44C24.7522 44.5667 24.9296 45.1189 25.2578 45.581C25.5859 46.043 26.0488 46.3924 26.5832 46.5813V41.1583C25.5471 40.9479 24.6156 40.3858 23.9465 39.5672C23.2774 38.7486 22.9119 37.7239 22.9119 36.6667C22.9119 35.6094 23.2774 34.5847 23.9465 33.7661C24.6156 32.9475 25.5471 32.3854 26.5832 32.175V32.0833C26.5832 31.8402 26.6797 31.6071 26.8517 31.4352C27.0236 31.2632 27.2567 31.1667 27.4998 31.1667C27.743 31.1667 27.9761 31.2632 28.148 31.4352C28.3199 31.6071 28.4165 31.8402 28.4165 32.0833V32.175C29.451 32.3878 30.3806 32.9507 31.0485 33.7689C31.7164 34.587 32.0818 35.6105 32.0832 36.6667C32.0832 36.9098 31.9866 37.1429 31.8147 37.3148C31.6428 37.4868 31.4096 37.5833 31.1665 37.5833C30.9234 37.5833 30.6902 37.4868 30.5183 37.3148C30.3464 37.1429 30.2498 36.9098 30.2498 36.6667C30.2475 36.0999 30.0701 35.5478 29.7419 35.0857C29.4138 34.6236 28.9508 34.2742 28.4165 34.0853V39.5083C29.451 39.7211 30.3806 40.284 31.0485 41.1022C31.7164 41.9204 32.0818 42.9438 32.0832 44Z" fill="#1784C7"/>
<path d="M24.75 36.6667C24.7523 37.2334 24.9297 37.7856 25.2579 38.2476C25.5861 38.7097 26.049 39.0591 26.5833 39.248V34.0853C26.049 34.2742 25.5861 34.6236 25.2579 35.0857C24.9297 35.5477 24.7523 36.0999 24.75 36.6667Z" fill="#1784C7"/>
<path d="M28.4168 4.58331V2.74998C28.4168 2.50686 28.3203 2.27371 28.1483 2.1018C27.9764 1.92989 27.7433 1.83331 27.5002 1.83331C27.257 1.83331 27.0239 1.92989 26.852 2.1018C26.6801 2.27371 26.5835 2.50686 26.5835 2.74998V4.58331C26.5835 4.82643 26.6801 5.05959 26.852 5.23149C27.0239 5.4034 27.257 5.49998 27.5002 5.49998C27.7433 5.49998 27.9764 5.4034 28.1483 5.23149C28.3203 5.05959 28.4168 4.82643 28.4168 4.58331Z" fill="#1784C7"/>
<path d="M17.4165 2.74998V4.58331C17.4165 4.82643 17.5131 5.05959 17.685 5.23149C17.8569 5.4034 18.0901 5.49998 18.3332 5.49998C18.5763 5.49998 18.8094 5.4034 18.9814 5.23149C19.1533 5.05959 19.2498 4.82643 19.2498 4.58331V2.74998C19.2498 2.50686 19.1533 2.27371 18.9814 2.1018C18.8094 1.92989 18.5763 1.83331 18.3332 1.83331C18.0901 1.83331 17.8569 1.92989 17.685 2.1018C17.5131 2.27371 17.4165 2.50686 17.4165 2.74998Z" fill="#1784C7"/>
<path d="M46.7498 4.58331V2.74998C46.7498 2.50686 46.6533 2.27371 46.4814 2.1018C46.3094 1.92989 46.0763 1.83331 45.8332 1.83331C45.5901 1.83331 45.3569 1.92989 45.185 2.1018C45.0131 2.27371 44.9165 2.50686 44.9165 2.74998V4.58331C44.9165 4.82643 45.0131 5.05959 45.185 5.23149C45.3569 5.4034 45.5901 5.49998 45.8332 5.49998C46.0763 5.49998 46.3094 5.4034 46.4814 5.23149C46.6533 5.05959 46.7498 4.82643 46.7498 4.58331Z" fill="#1784C7"/>
<path d="M37.5833 4.58331V2.74998C37.5833 2.50686 37.4868 2.27371 37.3148 2.1018C37.1429 1.92989 36.9098 1.83331 36.6667 1.83331C36.4236 1.83331 36.1904 1.92989 36.0185 2.1018C35.8466 2.27371 35.75 2.50686 35.75 2.74998V4.58331C35.75 4.82643 35.8466 5.05959 36.0185 5.23149C36.1904 5.4034 36.4236 5.49998 36.6667 5.49998C36.9098 5.49998 37.1429 5.4034 37.3148 5.23149C37.4868 5.05959 37.5833 4.82643 37.5833 4.58331Z" fill="#1784C7"/>
<path d="M8.25 2.74998V4.58331C8.25 4.82643 8.34658 5.05959 8.51849 5.23149C8.69039 5.4034 8.92355 5.49998 9.16667 5.49998C9.40978 5.49998 9.64294 5.4034 9.81485 5.23149C9.98676 5.05959 10.0833 4.82643 10.0833 4.58331V2.74998C10.0833 2.50686 9.98676 2.27371 9.81485 2.1018C9.64294 1.92989 9.40978 1.83331 9.16667 1.83331C8.92355 1.83331 8.69039 1.92989 8.51849 2.1018C8.34658 2.27371 8.25 2.50686 8.25 2.74998Z" fill="#1784C7"/>
</svg>
