<svg width="55" height="55" viewBox="0 0 55 55" fill="none" xmlns="http://www.w3.org/2000/svg">
<g clip-path="url(#clip0_2005_205)">
<path d="M46.9455 8.05449C41.7513 2.86054 34.8455 0 27.5 0C20.1545 0 13.2487 2.86054 8.05449 8.05449C2.86054 13.2487 0 20.1545 0 27.5C0 34.8455 2.86054 41.7513 8.05449 46.9455C13.2487 52.1395 20.1545 55 27.5 55C34.8455 55 41.7513 52.1395 46.9455 46.9455C52.1395 41.7513 55 34.8455 55 27.5C55 20.1545 52.1395 13.2487 46.9455 8.05449ZM17.2296 5.50548C16.336 6.99327 15.5348 8.74575 14.8432 10.7396C14.4732 11.8064 14.1441 12.9229 13.8522 14.0772C11.9179 13.6691 10.0739 13.1735 8.35001 12.5952C10.6977 9.58558 13.7383 7.14237 17.2296 5.50548ZM6.4827 15.3596C8.55647 16.101 10.8033 16.7252 13.1719 17.2252C12.6752 19.9651 12.3829 22.8779 12.3059 25.8887H3.27744C3.5287 22.0729 4.66437 18.4951 6.4827 15.3596ZM6.47646 39.6301C4.66179 36.497 3.52849 32.9228 3.27744 29.1113H12.3059C12.3828 32.1196 12.6747 35.03 13.1705 37.7678C10.8005 38.2668 8.55196 38.8897 6.47646 39.6301ZM8.34281 42.3954C10.0685 41.8179 11.9144 41.323 13.8503 40.9159C14.1426 42.0729 14.4724 43.1917 14.8432 44.2606C15.5348 46.2544 16.336 48.0067 17.2296 49.4945C13.7347 47.856 10.6916 45.4094 8.34281 42.3954ZM25.8887 51.7226C24.982 51.6628 24.0884 51.555 23.2114 51.398C20.8496 49.9414 18.491 46.0441 17.0171 40.3401C19.8578 39.9017 22.8432 39.6419 25.8887 39.5744V51.7226ZM25.8887 36.3508C22.6118 36.4206 19.3935 36.7047 16.3302 37.1872C15.8891 34.7381 15.6044 32.0338 15.5273 29.1113H25.8887V36.3508ZM25.8887 25.8887H15.5273C15.6044 22.9641 15.8894 20.258 16.331 17.8074C19.3935 18.2915 22.6113 18.577 25.8887 18.6483V25.8887ZM25.8887 15.4247C22.8429 15.3558 19.8581 15.0947 17.0184 14.6548C18.4924 8.95361 20.8504 5.05807 23.2115 3.60196C24.0885 3.44502 24.9821 3.33717 25.8887 3.27744V15.4247ZM48.5234 15.3699C50.3382 18.5031 51.4715 22.0772 51.7226 25.8887H42.6941C42.6172 22.8804 42.3253 19.97 41.8294 17.2322C44.1994 16.7332 46.4479 16.1103 48.5234 15.3699ZM46.6571 12.6046C44.9313 13.1821 43.0855 13.677 41.1496 14.0841C40.8573 12.9273 40.5275 11.8086 40.1568 10.7396C39.4652 8.74575 38.664 6.99327 37.7704 5.50548C41.2653 7.14398 44.3084 9.59062 46.6571 12.6046ZM29.1113 3.27744C30.0179 3.33717 30.9115 3.44502 31.7885 3.60196C34.1503 5.0585 36.5089 8.95587 37.9829 14.6599C35.1422 15.0983 32.1568 15.3581 29.1113 15.4256V3.27744ZM29.1113 18.6492C32.3882 18.5794 35.6065 18.2953 38.6698 17.8128C39.1109 20.262 39.3956 22.9663 39.4727 25.8888H29.1113V18.6492ZM29.1113 29.1113H39.4727C39.3956 32.0359 39.1106 34.742 38.669 37.1926C35.6065 36.7085 32.3888 36.423 29.1113 36.3517V29.1113ZM31.7886 51.398C30.9116 51.555 30.018 51.6628 29.1113 51.7226V39.5753C32.1571 39.6441 35.142 39.9053 37.9816 40.3452C36.5076 46.0464 34.1497 49.9418 31.7886 51.398ZM37.7704 49.4945C38.664 48.0067 39.4652 46.2545 40.1568 44.2606C40.5268 43.1937 40.856 42.0773 41.1479 40.9228C43.0822 41.3308 44.9262 41.8265 46.6501 42.4048C44.3023 45.4144 41.2617 47.8576 37.7704 49.4945ZM48.5173 39.6404C46.4435 38.899 44.1967 38.2748 41.8281 37.7748C42.3248 35.0349 42.6171 32.1221 42.694 29.1113H51.7225C51.4713 32.9271 50.3356 36.5049 48.5173 39.6404Z" fill="#1784C7"/>
</g>
<defs>
<clipPath id="clip0_2005_205">
<rect width="55" height="55" fill="white"/>
</clipPath>
</defs>
</svg>
