<svg width="55" height="55" viewBox="0 0 55 55" fill="none" xmlns="http://www.w3.org/2000/svg">
<g clip-path="url(#clip0_2006_266)">
<path d="M48.0176 0H6.98242C3.13231 0 0 3.13231 0 6.98242V48.0176C0 51.8677 3.13231 55 6.98242 55H48.0176C51.8677 55 55 51.8677 55 48.0176V6.98242C55 3.13231 51.8677 0 48.0176 0ZM38.1834 39.8947V46.2274H34.9608V30.7593H38.1834V36.672H42.3784V30.7593H45.601V46.2273H42.3784V39.8946H38.1834V39.8947ZM15.3762 40.1305C14.9507 40.0067 14.565 39.9035 14.2249 39.8125C12.9856 39.4808 12.0067 39.2188 10.9578 38.4378C9.71169 37.51 9.08811 35.9917 9.33056 34.4754C9.5859 32.8787 10.7332 31.5927 12.3995 31.035C14.9736 30.1737 17.311 31.4258 18.1965 32.0041L16.4344 34.7023C16.0499 34.4512 14.696 33.6648 13.4221 34.0912C12.9 34.2659 12.577 34.5831 12.5128 34.9843C12.4596 35.3163 12.5979 35.6411 12.8825 35.853C13.415 36.2495 13.9045 36.3907 15.0581 36.6994C15.414 36.7947 15.8174 36.9026 16.2763 37.0362C17.9412 37.5204 18.7771 38.5489 19.1852 39.3264C19.6713 40.2526 19.8182 41.3525 19.5878 42.344C19.0483 44.6668 16.9712 46.2274 14.4192 46.2274C12.4686 46.2274 10.5815 45.4801 9.24226 44.1771L11.4895 41.8672C12.2326 42.5901 13.3003 43.0047 14.4192 43.0047C16.0027 43.0047 16.373 41.9409 16.4488 41.6148C16.4591 41.57 16.6887 40.5122 15.3762 40.1305ZM13.6062 23.8877V20.1833L20.195 16.4482L13.6062 12.7133V9.00872L24.257 15.0465V17.8501L13.6062 23.8877ZM27.9803 40.1305C27.5548 40.0067 27.1692 39.9035 26.829 39.8125C25.5898 39.4808 24.6109 39.2188 23.562 38.4378C22.3157 37.5099 21.6922 35.9916 21.9348 34.4753C22.1901 32.8786 23.3374 31.5926 25.0037 31.035C27.5773 30.1737 29.9151 31.4257 30.8006 32.004L29.0387 34.7023C28.6541 34.4512 27.3002 33.6649 26.0264 34.0911C25.5041 34.2659 25.1812 34.5831 25.117 34.9842C25.0639 35.3162 25.202 35.641 25.4866 35.8529C26.0192 36.2494 26.5086 36.3906 27.6623 36.6994C28.0182 36.7947 28.4216 36.9026 28.8805 37.0361C30.5453 37.5203 31.3813 38.5488 31.7895 39.3263C32.2755 40.2526 32.4224 41.3525 32.1919 42.3441C31.6524 44.6668 29.5753 46.2273 27.0235 46.2273C25.0727 46.2273 23.1856 45.4799 21.8464 44.177L24.0937 41.8671C24.8367 42.59 25.9046 43.0046 27.0235 43.0046C28.6069 43.0046 28.9771 41.9408 29.0529 41.6147C29.0633 41.5699 29.2929 40.5122 27.9803 40.1305ZM24.2411 23.9369V20.7143H41.4286V23.9369H24.2411Z" fill="black"/>
<rect x="7.30469" y="28.8965" width="40.498" height="20.5176" fill="black"/>
</g>
<defs>
<clipPath id="clip0_2006_266">
<rect width="55" height="55" fill="white"/>
</clipPath>
</defs>
</svg>
