<?xml version="1.0" encoding="utf-8"?>
<!-- Generator: Adobe Illustrator 25.4.1, SVG Export Plug-In . SVG Version: 6.00 Build 0)  -->
<svg version="1.1" baseProfile="tiny" id="Capa_1" xmlns="http://www.w3.org/2000/svg" xmlns:xlink="http://www.w3.org/1999/xlink"
	 x="0px" y="0px" viewBox="0 0 799.2 799.1" overflow="visible" xml:space="preserve">
<g>
	<path fill="#0182C8" d="M786.8,497.2c-5.7,24.2-14.1,47.4-24.7,69.9c-1-0.1-2-0.2-2.9-0.4c-7.5-1.7-14,1.3-16.5,7.6
		c-2.7,6.7,0,12.9,7.2,16.9c-5.3,10.9-11.8,21-18.6,31c-2-2.2-1.9-5.2-3.3-7.7c-3.7-6.9-11.2-10.5-19.8-9.3
		c-7.4,1.1-13.4,7.6-14.8,16.1c-1,6.5,3.4,14.3,9.6,17.8c4.7,2.7,9.7,1.8,14.6,2c-1.7,2.7-3.4,5.3-5.9,7.3c-2.4-0.7-4.5-0.2-6.7,0.8
		c-9.3,4-12,11.6-11.6,21c-7.4,8.2-15,16.3-23.6,23.3c-9.5-1.2-16.4,4.9-18.2,15.9c-17.7,14.9-36.8,27.9-57.2,38.8
		c-0.6-0.8-1.1-1.7-1.7-2.5c-3.8-5.4-10.2-7.3-16.1-4.7c-6.1,2.6-9.2,8.3-8,14.8c0.3,1.8,1.1,3.5,0.8,5.3
		c-19.3,9.4-39.4,16.6-59.9,22.6c-1.2,0.4-2.6,0.3-3.9,0.5c-2,0.2-3.8-0.6-5.7-1.3c-6.6-2.5-14.7,1-16.6,6.9
		c-6.1,2-12.3,3.1-18.7,3.6c-0.3-4.5-2.9-7.3-6.7-9.1c-9.6-4.7-18.3,0.7-20.5,12.8c-5,0.9-10,1.2-15,1.1c-0.1-4.9-1.5-9.2-5.9-11.9
		c-4.5-2.8-9.5-3.3-14.2-0.9c-5.5,2.7-7.6,7.6-7,13.6c-5.7,0.2-11.3,0.4-16.9-0.7c0-7.7-2.7-11.7-8.5-14.2
		c-6.8-2.8-16.7,1.2-18.5,12c-30.6-3.5-60.4-10.4-89.1-21.4C143.6,729,62.9,646.2,20.9,526.4C2.1,472.7-3.5,417.1,2.1,360.5
		c5.3-54,21-104.9,47-152.5c1.3,0.9,1,2.3,1.2,3.6c0.7,7.4,6.3,12.1,14,11.6c7.1-0.4,12.4-6.4,12.1-13.8
		c-0.3-7.2-5.6-12.4-12.9-12.3c-2.9,0-5.9,0.7-8.8,1c3.9-6.6,7.4-13.3,12.3-19.3c6.7-1.2,9.8-5.8,9-13.1
		c6.3-9.6,13.4-18.4,21.1-26.8c11.5,6.7,28.2-0.6,27.5-16.3c-0.2-3.8-2.1-6.9-2.3-10.5c6.5-6.6,13.3-12.8,20.5-18.5
		c5.9,2.5,11.7,2.6,16.9-1.5c5-3.9,6.8-9.2,5.2-15.5c14.7-11.8,31-21.3,47.6-30.1C277,12.5,346-3.2,419,0.6
		c95.8,5,179.5,40.1,250.6,104.6c33.4,30.2,60.5,65.5,81.8,105.1c1.6,2.9,2.9,6,4.4,8.9c-7.8,0.3-13.2,4.7-13.7,11.1
		c-0.6,8.4,3.5,14.1,11.3,15.5c5.1,0.9,8.8-2.2,12.7-4.6c10,22.5,17.8,45.7,22.7,69.9c-6.3,5.8-4.1,16.5,4,19.2
		c1.6,6.2,2.2,12.5,3,18.8c-8.5,3.6-11.8,8.7-10.7,16.2c0.9,6.1,5.9,10.4,12.9,11c0.3,5.3-0.4,10.6,0.9,15.9
		c-5.1,0.4-9.4,2.1-12,6.7c-5.3,9.2-0.5,18.2,11.5,21.4c-0.2,5.3,0,10.7-1.2,16c-7.3,1.4-11.5,5.7-11.9,12.4
		c-0.3,5.9,3.3,11.1,8.7,12.7c-0.5,7.8-2.2,15.3-4.1,22.8C785,487.4,783.8,492.8,786.8,497.2z M584.3,475.1c-1.1,1.5-2.7,1-4.1,1
		c-8.5,0.5-16.3,9.2-15.8,17.5c0.5,8.7,8.9,16.6,17.5,16.5c8.8-0.1,15.9-7.3,16.5-16c0.3-5.2-1.7-9.3-4.2-13.5
		c19.6,8.9,39.9,11.8,61.1,7.8c0,1.2,0,2.3,0,3.5c0,6.9,2.9,11.4,8.8,13.6c4.9,1.9,11.1,0.2,14.5-3.8c4.3-5.2,4.7-10.4,1-16.5
		c-0.8-1.3-1.6-2.5-1.3-4.1c43.1-20.8,62.1-64.4,57.2-103.5c-5.6-45-45.6-83.8-90.8-86.3c-42.6-2.3-74,16.2-95.3,52.8
		c-0.7,1.2-0.8,2.9-2.1,3.3c-24.4-65.7-69.7-106.9-140.9-109.3c-77.4-2.5-126.8,39.4-153.5,110.3c-0.8-0.7-1.2-1.9-1.4-3.2
		c3.9-10.5-3.3-21-14.3-20.7c-1.1-1-2.2-2.1-3.2-3.1c-23.7-23.6-52.1-33.8-85.5-29.3C93.1,299.5,54,354.5,64.9,409
		c8.4,41.8,42.1,74.3,83,80c42.5,5.9,82.5-14.7,102.8-53c0.6-1.2,0.9-2.8,2.4-3.5c22.1,74.7,90.3,112.1,145.3,111
		c74.9-1.6,122.7-41.2,148.9-110.1C555.8,450.7,568.3,464.5,584.3,475.1z M625.4,605c-10.9-0.1-19.1,7.5-19.2,18
		c-0.1,9.4,8.3,18,17.7,18.1c10.9,0.2,19.1-7.4,19.3-17.8C643.3,613.3,635.5,605.2,625.4,605z M478.2,710c0,9.7,7.2,17,16.9,17.1
		c8.8,0,17-8,17.1-16.7c0.1-9.6-7.7-17.3-17.5-17.2C485.4,693.1,478.2,700.5,478.2,710z M685.2,666.1c0-9.5-7.3-16.9-16.6-16.9
		c-9.3,0-17.6,8.4-17.4,17.6c0.2,9.2,7.7,16.4,17.2,16.4C678.2,683.1,685.3,675.9,685.2,666.1z M280.2,63.2c-9.4,0-17,7.7-16.9,17.1
		c0.1,8.9,8,16.8,16.9,16.8c8.8,0,17-8.1,17-16.8C297.3,71,289.5,63.2,280.2,63.2z M581.9,520c-8-1.1-17.1,6.5-17.4,16.6
		c-0.3,8.7,8.1,16.5,17.1,16.5c9.8,0,16.7-6.8,16.7-16.4C598.3,527,591.5,520.1,581.9,520z M711.5,509.2c9.8,0,16.7-6.8,16.7-16.5
		c0-9-7.1-16.4-16-16.5c-9.4-0.1-17.1,7.6-17,17.1C695.2,502.1,702.4,509.1,711.5,509.2z M771.2,405.6c0-9-7.1-16.2-15.9-16.3
		c-8.5-0.1-17.4,7.9-16.9,16.3c0.4,8.4,5.8,17.1,17.2,16.7C765.1,422,771.2,415.6,771.2,405.6z M684.2,579.7
		c0-9.4-6.5-15.7-16.1-15.6c-8.7,0-16,7.3-15.9,15.8c0.2,8.8,7.8,16.4,16.2,16.2C677.6,595.8,684.3,588.9,684.2,579.7z M407.7,638
		c7.9,0.1,15.3-6.9,15.5-14.6c0.2-7.6-7.2-15.2-14.9-15.2c-7.5,0-14.7,7.1-14.9,14.7C393.1,630.3,400.4,637.9,407.7,638z
		 M379.3,709.4c0-8.4-5.9-14.3-14.4-14.4c-8.2,0-14.6,6.2-14.7,14.4c-0.1,8.1,6.3,14.6,14.3,14.7C373,724.2,379.3,717.9,379.3,709.4
		z M136.2,123.5c-1.3,8.4,7.6,14.6,13.7,14.6c7.8,0,14.3-6.5,14.3-14.2c0.1-7.9-6.3-14.5-14-14.6C143.5,109.2,135,116,136.2,123.5z
		 M207.3,80.1c0-8.2-6-14-14.3-13.8c-7.7,0.1-13.8,6.8-13.7,14.8c0.1,8,5.8,13.3,14.2,13.3C201.9,94.2,207.4,88.7,207.3,80.1z
		 M538.6,723.1c7.6,0,13.6-6,13.6-13.5c0-8-5.8-13.1-14-13.7c-6.7-0.4-13.4,6.4-13.8,13.1C524,716.7,530.7,723.1,538.6,723.1z
		 M451.2,696.1c-7.4,0-13,5.9-13,13.5c0,7.6,5.7,13.4,13.1,13.4c7.1-0.1,13.5-6.2,13.7-13.3C465.2,702.7,458.5,696.1,451.2,696.1z
		 M568.2,666.7c0.1,6.7,6.8,13.3,13.2,13.2c7.2-0.1,13.7-6.6,13.7-13.8c0-7.3-6.3-13.2-14.1-13.1
		C573.8,653.2,568.1,659.3,568.2,666.7z M366.9,93.2c7.2-0.1,13.5-6.4,13.3-13.3c-0.2-7.2-6.5-13.4-13.4-13.5
		c-7.1,0-13.6,6.6-13.5,13.9C353.4,87.5,359.5,93.3,366.9,93.2z M310.2,36.6c-0.1,7.3,5.9,13.6,13,13.6c7.3,0,13.9-6.4,13.8-13.5
		c-0.1-7-6.4-13.2-13.5-13.4C316.5,23.1,310.3,29.3,310.2,36.6z M453.3,93.2c7.7,0,14-6.1,13.9-13.3c-0.2-7.1-6.4-13.4-13.4-13.5
		c-7.1-0.1-13.6,6.5-13.5,13.8C440.3,87.2,446.4,93.2,453.3,93.2z M310.2,123.7c0,7.3,6.1,13.5,13.1,13.5
		c7.1-0.1,13.4-6.1,13.7-13.2c0.2-7.1-6.3-13.6-13.6-13.7C316.3,110.2,310.2,116.4,310.2,123.7z M236.7,267.2
		c6.6,0,13.3-6.4,13.4-12.9c0.1-7.2-6.4-14-13.4-14c-6.9,0-13.4,6.5-13.4,13.4C223.2,261.5,228.9,267.2,236.7,267.2z M581.6,696.1
		c-6.9,0.1-13.4,6.6-13.3,13.5c0,7.3,6,13.3,13.4,13.4c6.8,0.1,13.6-6.6,13.5-13.5C595.1,702.7,588.4,696.1,581.6,696.1z
		 M378.2,666.3c0.1-7.3-5.5-13.1-12.7-13.2c-7.3-0.1-14.3,6.4-14.1,13.2c0.2,6.8,6.6,13.4,13.6,13.6
		C371.5,680.2,378.2,673.4,378.2,666.3z M581.8,636.1c7.6-0.1,13.4-5.9,13.3-13.3c-0.1-7.5-5.9-12.9-13.6-12.8
		c-7.6,0.1-13.4,5.8-13.3,13.2C568.3,630.8,574.1,636.2,581.8,636.1z M323.1,180.2c7.4,0.1,14-6.3,13.9-13.5
		c-0.1-6.7-6.9-13.3-13.7-13.3c-6.7,0-13.1,6.7-13.1,13.8C310.2,174.4,315.9,180.1,323.1,180.2z M583.8,93.2
		c7.2,0.1,13.3-5.9,13.3-13.3c0.1-6.9-6.4-13.5-13.4-13.5c-6.9-0.1-13.6,6.6-13.5,13.5C570.4,86.9,576.8,93.1,583.8,93.2z
		 M334.3,709.7c0-7.7-5.4-13.5-12.9-13.6c-7.4-0.1-13.2,5.6-13.2,13.3c-0.1,7.8,5.3,13.5,12.8,13.6
		C328.4,723.2,334.2,717.3,334.3,709.7z M421.3,709.4c0-7.7-5.7-13.4-13.2-13.3c-7.5,0.1-12.9,5.9-12.9,13.6
		c0,7.7,5.7,13.4,13.2,13.3C415.7,722.9,421.3,717.1,421.3,709.4z M206.3,123.9c0.1-7.8-5.3-13.5-12.8-13.7
		c-7.4-0.2-13.2,5.6-13.3,13.2c-0.1,7.7,5.4,13.6,12.8,13.7C200.5,137.3,206.3,131.6,206.3,123.9z M223.3,123.8
		c0,6.9,6.6,13.4,13.5,13.3c6.9,0,13.5-6.8,13.4-13.6c-0.2-6.9-6.7-13.2-13.8-13.2C229.3,110.2,223.2,116.5,223.3,123.8z
		 M711.7,549.2c7.7,0,13.4-5.6,13.4-13c0-7.5-5.7-13.1-13.4-13.1c-7.6,0-13.5,5.6-13.5,13C698.2,543.5,704.1,549.2,711.7,549.2z
		 M236.2,93.2c7.1,0,13.8-6.2,13.9-13c0.1-6.8-6.4-13.7-13.2-13.8c-6.9-0.2-13.6,6.3-13.7,13.2C223.2,87.4,228.8,93.2,236.2,93.2z
		 M310.2,80c-0.1,7.3,5.5,13.1,12.7,13.2c7.4,0.1,13.8-5.9,14.1-13.3c0.2-6.5-6.9-13.7-13.5-13.5C316.4,66.6,310.3,72.8,310.2,80z
		 M438.2,665.9c-0.1,7.1,6.1,13.8,12.8,14c6.5,0.2,13.8-6.8,14-13.2c0.2-7.1-6.3-13.6-13.7-13.6C444,653.1,438.3,658.7,438.2,665.9z
		 M423.3,37.2c0-8-5.5-14-13.1-13.9c-7.1,0-13,6.2-13,13.6c0,7.2,6.2,13.5,13.2,13.3C417.7,50,423.3,44.5,423.3,37.2z M119.4,167.1
		c0-8-5.8-14-13.3-13.8c-7,0.2-12.8,6.2-12.8,13.3c0,7.7,5.5,13.5,12.9,13.5C113.6,180.3,119.3,174.6,119.4,167.1z M638.2,666.4
		c-0.1-7.7-5.7-13.4-13.1-13.4c-7.1,0-13.8,6.5-13.7,13.1c0.1,6.7,7.4,13.9,14,13.8C631.8,679.8,638.2,673.1,638.2,666.4z
		 M625.2,566.1c-7.1,0-13.8,6.3-13.9,12.9c-0.1,6.6,7.2,13.9,13.8,13.9c6.4,0,13-6.7,13-13.3C638.2,572,632.6,566.2,625.2,566.1z
		 M624.6,696.1c-6.7,0.1-13.4,6.7-13.3,13.1c0.1,7,6.6,13.7,13.3,13.8c7.1,0.1,13.8-6.7,13.6-13.8C638,702,631.8,696,624.6,696.1z
		 M206.3,166.9c0.2-9.5-6.8-12.9-13-13.5c-7-0.6-13.1,6.1-13.1,13.4c0,7.6,5.6,13.4,13.1,13.4C200.8,180.2,206.3,174.6,206.3,166.9z
		 M365.3,610.1c-8,0-14,5.6-13.9,13.1c0.1,6.9,6.1,12.9,13.2,13c7.7,0.1,13.6-5.3,13.7-12.7C378.4,616,372.7,610.1,365.3,610.1z
		 M711.5,566.1c-6.7,0.1-13.3,6.6-13.2,13.1c0.1,6.8,6.8,13.7,13.4,13.7c7,0,13.5-6.5,13.5-13.4C725.1,571.9,719.1,566,711.5,566.1z
		 M768.2,362.7c0-7.5-6.2-13.6-13.6-13.5c-7,0.1-12.5,6-12.5,13.4c0,7.6,5.7,13.5,13,13.5C762.5,376.1,768.2,370.4,768.2,362.7z
		 M278.4,610.1c-7.9,0-13.9,5.3-13.9,12.6c0,7.2,6.1,13.4,13.2,13.5c7.7,0.1,13.5-5.4,13.7-12.7
		C291.4,615.9,285.8,610.1,278.4,610.1z M668.6,636.1c7.3,0,13.9-6.2,13.3-13.2c-0.6-6.2-4-13.1-13.5-12.9
		c-7.6,0.1-13.3,5.7-13.2,13.2C655.2,630.6,661,636.2,668.6,636.1z M551.3,579.2c0-7.5-5.6-13.2-13.1-13.1c-7.2,0-12.9,5.7-13,12.9
		c-0.1,7.1,6,13.8,12.8,14C545.4,593.2,551.3,587.2,551.3,579.2z M421.3,666.3c-0.1-7.6-5.7-13.3-13.1-13.2c-7.5,0-12.9,5.7-13,13.4
		c-0.1,9.5,6.9,12.9,13.1,13.4C414.8,680.4,421.3,673.2,421.3,666.3z M321.3,636.1c7.8,0,13-5.3,12.9-13.2c0-7.8-5.3-13-13.1-12.9
		c-7.8,0-13,5.3-12.9,13.1C308.2,631,313.5,636.2,321.3,636.1z M551.3,492.8c0-7.6-5.3-13.3-12.5-13.5c-7.1-0.2-13.6,6.3-13.6,13.7
		c0,7.5,5.8,13.2,13.2,13.1C546.1,506.1,551.3,500.7,551.3,492.8z M365.1,766.2c7.5,0,13.1-5.7,13.1-13.1c0-7.2-5.7-12.9-12.9-13
		c-7.1-0.1-13.7,6.1-14,12.8C351.1,760.3,357.2,766.2,365.1,766.2z M380.2,36.2c0-6.4-6.7-12.8-13.4-12.9
		c-6.8-0.1-13.5,6.5-13.5,13.4c0,6.8,6.6,13.5,13.4,13.5C373.8,50.2,380.2,43.5,380.2,36.2z M334.3,666.7
		c0.1-7.8-5.2-13.5-12.6-13.7c-7.7-0.2-13.5,5.5-13.5,13.4c0,6.9,6.6,13.6,13.2,13.5C328.4,679.8,334.2,673.8,334.3,666.7z
		 M206.3,210.4c0-8-5.1-13.2-13-13.2c-7.7,0-13.1,5.2-13.1,12.6c-0.1,8.2,5.1,13.5,13.3,13.5C201,223.3,206.3,218,206.3,210.4z
		 M495.2,766.2c7.8,0,13.1-5.4,13.1-13.2c0-7.3-5.7-12.9-13-12.9c-7.8,0-13.1,5.3-13.1,13.1C482.1,761.4,486.9,766.2,495.2,766.2z
		 M293.3,254c0-6.9-6.5-13.8-13.1-13.7c-7.3,0-12.9,5.7-13,13.1c-0.1,7.8,5.2,13.5,12.7,13.7C287.4,267.4,293.2,261.6,293.3,254z
		 M538.3,766.2c8.2,0,12.9-4.8,12.9-13c0-7.8-5.4-13.1-13.2-13.1c-7.2,0.1-12.9,5.8-12.9,13C525.2,760.8,530.5,766.2,538.3,766.2z
		 M410.5,67.1c-7.9,0-13.3,5.2-13.3,12.9c0,7.3,5.5,13.1,12.7,13.2c7.5,0.1,13.3-5.5,13.4-12.9C423.3,72,418.6,67.2,410.5,67.1z
		 M754.9,462.2c7.6,0,13.3-5.5,13.3-13c0-7.5-5.6-13.1-13.2-13.2c-7.5,0-12.8,5.3-12.9,12.8C742,456.8,747.2,462.2,754.9,462.2z
		 M551.3,536.3c0-7.7-5-13.1-12.4-13.2c-8-0.1-13.7,5.5-13.7,13.1c0,7.5,5.7,13,13.4,13C546,549.2,551.2,543.9,551.3,536.3z
		 M408.3,766.2c7.6,0,12.9-5.2,12.9-12.7c0-7.7-5.5-13.4-12.9-13.4c-7.7,0-13.2,5.7-13.2,13.6C395.2,761.1,400.6,766.2,408.3,766.2z
		"/>
	<path fill="#4AA6D8" d="M717.5,641.1c-4.9-0.2-9.9,0.7-14.6-2c-6.2-3.6-10.6-11.3-9.6-17.8c1.4-8.5,7.4-15.1,14.8-16.1
		c8.7-1.2,16.1,2.4,19.8,9.3c1.3,2.5,1.3,5.5,3.3,7.7C727.1,628.8,722.6,635.2,717.5,641.1z"/>
	<path fill="#4AA6D8" d="M54.6,198.2c2.9-0.4,5.9-1,8.8-1c7.3-0.1,12.6,5.1,12.9,12.3c0.3,7.3-5,13.4-12.1,13.8
		c-7.6,0.4-13.3-4.2-14-11.6c-0.1-1.3,0.1-2.7-1.2-3.6C50.5,204.5,52.4,201.3,54.6,198.2z"/>
	<path fill="#4AA6D8" d="M766.2,241.2c-3.9,2.4-7.6,5.5-12.7,4.6c-7.9-1.4-12-7.1-11.3-15.5c0.5-6.3,5.9-10.8,13.7-11.1
		C759.9,226.2,763.4,233.5,766.2,241.2z"/>
	<path fill="#4AA6D8" d="M122.2,112.2c0.1,3.6,2.1,6.8,2.3,10.5c0.7,15.6-16,23-27.5,16.3C104.6,129.3,113.2,120.5,122.2,112.2z"/>
	<path fill="#4AA6D8" d="M395.1,798.9c-0.6-6,1.4-10.9,7-13.6c4.7-2.3,9.7-1.9,14.2,0.9c4.4,2.7,5.7,7.1,5.9,11.9
		C413.2,799.6,404.2,799,395.1,798.9z"/>
	<path fill="#4AA6D8" d="M569.2,761.1c0.3-1.9-0.5-3.6-0.8-5.3c-1.2-6.5,2-12.2,8-14.8c5.9-2.5,12.3-0.7,16.1,4.7
		c0.6,0.8,1.1,1.6,1.7,2.5C586.3,753.3,577.8,757.3,569.2,761.1z"/>
	<path fill="#4AA6D8" d="M798.3,420.2c-11.9-3.1-16.8-12.1-11.5-21.4c2.6-4.6,7-6.4,12-6.7C799.1,401.4,799.7,410.8,798.3,420.2z"/>
	<path fill="#4AA6D8" d="M749.8,591.1c-7.2-4-9.8-10.2-7.2-16.9c2.5-6.3,9.1-9.3,16.5-7.6c1,0.2,2,0.3,2.9,0.4
		C758.6,575.4,754.8,583.6,749.8,591.1z"/>
	<path fill="#4AA6D8" d="M351.2,796c1.8-10.7,11.7-14.8,18.5-12c5.8,2.4,8.5,6.5,8.5,14.2C369.1,798.4,360.1,797.4,351.2,796z"/>
	<path fill="#4AA6D8" d="M437.2,797.1c2.2-12.1,10.9-17.5,20.5-12.8c3.8,1.9,6.5,4.6,6.7,9.1C455.5,795.6,446.4,796.7,437.2,797.1z"
		/>
	<path fill="#4AA6D8" d="M798.1,376.2c-6.9-0.6-12-4.9-12.9-11c-1.1-7.5,2.2-12.6,10.7-16.2C797,358.1,798.5,367.1,798.1,376.2z"/>
	<path fill="#4AA6D8" d="M793.9,461.2c-5.5-1.6-9.1-6.8-8.7-12.7c0.4-6.7,4.6-11,11.9-12.4C797,444.6,796,453,793.9,461.2z"/>
	<path fill="#4AA6D8" d="M164.8,76.7c1.6,6.3-0.1,11.5-5.2,15.5c-5.2,4.1-11,4-16.9,1.5C149.7,87.5,156.8,81.5,164.8,76.7z"/>
	<path fill="#4AA6D8" d="M693.2,670.2c-0.4-9.4,2.4-16.9,11.6-21c2.2-1,4.4-1.4,6.7-0.8C706.3,656.4,699.9,663.4,693.2,670.2z"/>
	<path fill="#4AA6D8" d="M651.4,709.4c1.8-11,8.7-17.1,18.2-15.9C664.2,699.5,658,704.7,651.4,709.4z"/>
	<path fill="#4AA6D8" d="M483.1,789.9c1.9-6,10-9.4,16.6-6.9c1.9,0.7,3.7,1.5,5.7,1.3C498.3,787.5,490.7,788.8,483.1,789.9z"/>
	<path fill="#4AA6D8" d="M792.8,330.3c-8.1-2.7-10.3-13.4-4-19.2C791.1,317.3,792.1,323.8,792.8,330.3z"/>
	<path fill="#4AA6D8" d="M75.9,165.8c0.8,7.4-2.3,11.9-9,13.1C69.2,174,72.4,169.8,75.9,165.8z"/>
	<path fill="#4AA6D8" d="M786.8,497.2c-3-4.5-1.7-9.9,3.1-13.2C789.4,488.6,788.4,493,786.8,497.2z"/>
	<path fill="#4AA6D8" d="M625.4,605c10,0.1,17.9,8.2,17.7,18.3c-0.1,10.4-8.3,17.9-19.3,17.8c-9.4-0.1-17.7-8.7-17.7-18.1
		C606.3,612.6,614.5,604.9,625.4,605z"/>
	<path fill="#4AA6D8" d="M478.2,710c0-9.5,7.2-16.9,16.5-16.9c9.8,0,17.6,7.7,17.5,17.2c-0.1,8.8-8.3,16.8-17.1,16.7
		C485.4,727,478.2,719.8,478.2,710z"/>
	<path fill="#4AA6D8" d="M685.2,666.1c0,9.8-7.1,17-16.8,17.1c-9.5,0-17-7.1-17.2-16.4c-0.2-9.2,8.1-17.6,17.4-17.6
		C677.9,649.2,685.2,656.6,685.2,666.1z"/>
	<path fill="#4AA6D8" d="M584.3,475.1c3.3,1.9,6.6,3.7,9.9,5.6c2.5,4.1,4.5,8.3,4.2,13.5c-0.6,8.7-7.7,15.9-16.5,16
		c-8.6,0.1-17-7.8-17.5-16.5c-0.5-8.3,7.3-17,15.8-17.5C581.6,476,583.2,476.5,584.3,475.1z"/>
	<path fill="#4AA6D8" d="M280.2,63.2c9.3,0,17.1,7.8,17.1,17.1c0,8.8-8.2,16.9-17,16.8c-9,0-16.9-7.9-16.9-16.8
		C263.2,70.8,270.7,63.2,280.2,63.2z"/>
	<path fill="#4AA6D8" d="M581.9,520c9.6,0,16.4,6.9,16.4,16.7c0,9.7-6.9,16.4-16.7,16.4c-9,0-17.4-7.8-17.1-16.5
		C564.8,526.6,573.9,518.9,581.9,520z"/>
	<path fill="#4AA6D8" d="M711.5,509.2c-9,0-16.2-7.1-16.3-15.9c-0.1-9.5,7.6-17.2,17-17.1c8.8,0.1,15.9,7.4,16,16.5
		C728.2,502.4,721.3,509.2,711.5,509.2z"/>
	<path fill="#4AA6D8" d="M771.2,405.6c0,10.1-6.1,16.4-15.7,16.7c-11.4,0.3-16.7-8.4-17.2-16.7c-0.4-8.4,8.4-16.4,16.9-16.3
		C764.1,389.4,771.2,396.6,771.2,405.6z"/>
	<path fill="#4AA6D8" d="M684.2,579.7c0,9.3-6.6,16.2-15.8,16.4c-8.5,0.2-16-7.4-16.2-16.2c-0.2-8.5,7.1-15.7,15.9-15.8
		C677.7,564,684.2,570.3,684.2,579.7z"/>
	<path fill="#4AA6D8" d="M407.7,638c-7.3-0.1-14.6-7.7-14.4-15.2c0.2-7.6,7.4-14.7,14.9-14.7c7.7,0,15.1,7.6,14.9,15.2
		C423,631.1,415.6,638.1,407.7,638z"/>
	<path fill="#4AA6D8" d="M379.3,709.4c0,8.5-6.3,14.8-14.7,14.7c-8.1-0.1-14.4-6.6-14.3-14.7c0.1-8.2,6.5-14.4,14.7-14.4
		C373.4,695.1,379.3,701,379.3,709.4z"/>
	<path fill="#4AA6D8" d="M136.2,123.5c-1.3-7.5,7.3-14.3,14.1-14.2c7.6,0.1,14,6.7,14,14.6c-0.1,7.7-6.5,14.3-14.3,14.2
		C143.8,138.1,134.9,131.9,136.2,123.5z"/>
	<path fill="#4AA6D8" d="M207.3,80.1c0,8.6-5.4,14.2-13.8,14.2c-8.4,0-14.1-5.3-14.2-13.3c-0.1-8,6.1-14.6,13.7-14.8
		C201.3,66.1,207.3,71.9,207.3,80.1z"/>
	<path fill="#4AA6D8" d="M538.6,723.1c-7.9,0-14.6-6.4-14.2-14.1c0.3-6.7,7.1-13.6,13.8-13.1c8.2,0.5,14,5.7,14,13.7
		C552.2,717.1,546.2,723.1,538.6,723.1z"/>
	<path fill="#4AA6D8" d="M451.2,696.1c7.3,0,14,6.5,13.8,13.6c-0.2,7-6.5,13.2-13.7,13.3c-7.4,0.1-13.1-5.7-13.1-13.4
		C438.2,702,443.8,696.2,451.2,696.1z"/>
	<path fill="#4AA6D8" d="M568.2,666.7c-0.1-7.5,5.6-13.6,12.8-13.7c7.8-0.1,14.1,5.8,14.1,13.1c0,7.1-6.5,13.6-13.7,13.8
		C575,680.1,568.3,673.4,568.2,666.7z"/>
	<path fill="#4AA6D8" d="M366.9,93.2c-7.4,0.1-13.5-5.7-13.6-12.9c-0.1-7.3,6.3-13.9,13.5-13.9c7,0,13.2,6.3,13.4,13.5
		C380.4,86.9,374.2,93.1,366.9,93.2z"/>
	<path fill="#4AA6D8" d="M310.2,36.6c0.1-7.2,6.3-13.5,13.3-13.3c7.1,0.2,13.4,6.4,13.5,13.4c0.1,7.1-6.5,13.6-13.8,13.5
		C316.2,50.1,310.2,43.9,310.2,36.6z"/>
	<path fill="#4AA6D8" d="M453.3,93.2c-6.9,0-13-6.1-13.1-13c-0.1-7.3,6.4-13.9,13.5-13.8c7,0.1,13.2,6.4,13.4,13.5
		C467.3,87.2,461,93.2,453.3,93.2z"/>
	<path fill="#4AA6D8" d="M310.2,123.7c0-7.3,6.1-13.5,13.1-13.4c7.3,0.1,13.9,6.7,13.6,13.7c-0.2,7.1-6.5,13.1-13.7,13.2
		C316.3,137.2,310.2,131,310.2,123.7z"/>
	<path fill="#4AA6D8" d="M236.7,267.2c-7.8,0-13.5-5.7-13.5-13.5c0-6.9,6.5-13.3,13.4-13.4c7,0,13.6,6.8,13.4,14
		C250,260.7,243.4,267.2,236.7,267.2z"/>
	<path fill="#4AA6D8" d="M581.6,696.1c6.9-0.1,13.5,6.5,13.5,13.4c0,6.9-6.7,13.5-13.5,13.5c-7.3-0.1-13.3-6.1-13.4-13.4
		C568.2,702.7,574.6,696.2,581.6,696.1z"/>
	<path fill="#4AA6D8" d="M378.2,666.3c-0.1,7.1-6.7,13.9-13.3,13.6c-6.9-0.3-13.4-6.8-13.6-13.6c-0.2-6.8,6.8-13.4,14.1-13.2
		C372.7,653.2,378.3,659,378.2,666.3z"/>
	<path fill="#4AA6D8" d="M581.8,636.1c-7.7,0.1-13.5-5.4-13.6-12.9c-0.1-7.4,5.6-13.2,13.3-13.2c7.7-0.1,13.5,5.4,13.6,12.8
		C595.3,630.2,589.4,636.1,581.8,636.1z"/>
	<path fill="#4AA6D8" d="M323.1,180.2c-7.2-0.1-12.9-5.8-12.9-13.1c0-7.1,6.4-13.8,13.1-13.8c6.8,0,13.7,6.7,13.7,13.3
		C337.1,173.9,330.5,180.3,323.1,180.2z"/>
	<path fill="#4AA6D8" d="M583.8,93.2c-7.1-0.1-13.4-6.4-13.6-13.3c-0.1-6.9,6.5-13.5,13.5-13.5c7,0.1,13.5,6.6,13.4,13.5
		C597.1,87.3,591.1,93.3,583.8,93.2z"/>
	<path fill="#4AA6D8" d="M334.3,709.7c0,7.6-5.9,13.4-13.3,13.3c-7.5-0.1-12.9-5.8-12.8-13.6c0.1-7.6,5.8-13.4,13.2-13.3
		C328.9,696.2,334.3,702,334.3,709.7z"/>
	<path fill="#4AA6D8" d="M421.3,709.4c0,7.7-5.5,13.5-12.9,13.6c-7.5,0.1-13.1-5.6-13.2-13.3c0-7.7,5.4-13.5,12.9-13.6
		C415.5,696,421.2,701.8,421.3,709.4z"/>
	<path fill="#4AA6D8" d="M206.3,123.9c-0.1,7.6-5.8,13.4-13.3,13.2c-7.4-0.2-12.9-6-12.8-13.7c0.1-7.6,5.9-13.4,13.3-13.2
		C201,110.4,206.4,116.2,206.3,123.9z"/>
	<path fill="#4AA6D8" d="M223.3,123.8c0-7.3,6.1-13.6,13.1-13.5c7.1,0.1,13.6,6.3,13.8,13.2c0.2,6.8-6.5,13.6-13.4,13.6
		C229.9,137.2,223.3,130.7,223.3,123.8z"/>
	<path fill="#4AA6D8" d="M711.7,549.2c-7.6,0-13.5-5.7-13.5-13.1c0-7.4,5.8-13,13.5-13c7.7,0,13.4,5.6,13.4,13.1
		C725.1,543.6,719.4,549.2,711.7,549.2z"/>
	<path fill="#4AA6D8" d="M236.2,93.2c-7.5-0.1-13-5.9-13-13.6c0.1-6.9,6.7-13.4,13.7-13.2c6.8,0.2,13.3,7,13.2,13.8
		C250,87,243.3,93.3,236.2,93.2z"/>
	<path fill="#4AA6D8" d="M310.2,80c0.1-7.2,6.1-13.4,13.3-13.5c6.6-0.2,13.7,7,13.5,13.5c-0.2,7.4-6.6,13.4-14.1,13.3
		C315.8,93.1,310.2,87.3,310.2,80z"/>
	<path fill="#4AA6D8" d="M438.2,665.9c0.1-7.2,5.8-12.9,13.1-12.8c7.3,0,13.9,6.5,13.7,13.6c-0.2,6.5-7.5,13.4-14,13.2
		C444.3,679.8,438.1,673,438.2,665.9z"/>
	<path fill="#4AA6D8" d="M423.3,37.2c0,7.3-5.6,12.8-12.8,13c-7,0.1-13.2-6.1-13.2-13.3c0-7.4,5.9-13.5,13-13.6
		C417.8,23.2,423.3,29.2,423.3,37.2z"/>
	<path fill="#4AA6D8" d="M119.4,167.1c0,7.5-5.7,13.1-13.2,13.1c-7.4-0.1-12.9-5.9-12.9-13.5c0-7.1,5.8-13.1,12.8-13.3
		C113.5,153.1,119.4,159.1,119.4,167.1z"/>
	<path fill="#4AA6D8" d="M638.2,666.4c0,6.7-6.4,13.4-12.9,13.5c-6.6,0.1-13.9-7.1-14-13.8c-0.1-6.6,6.7-13.1,13.7-13.1
		C632.5,653.1,638.1,658.8,638.2,666.4z"/>
	<path fill="#4AA6D8" d="M625.2,566.1c7.4,0,13,5.8,13,13.5c0,6.7-6.6,13.4-13,13.3c-6.7,0-13.9-7.3-13.8-13.9
		C611.4,572.4,618.1,566.1,625.2,566.1z"/>
	<path fill="#4AA6D8" d="M624.6,696.1c7.3-0.1,13.4,5.9,13.6,13.1c0.2,7.1-6.5,13.9-13.6,13.8c-6.7-0.1-13.2-6.8-13.3-13.8
		C611.2,702.8,617.9,696.2,624.6,696.1z"/>
	<path fill="#4AA6D8" d="M206.3,166.9c0,7.7-5.6,13.3-13,13.3c-7.4,0-13-5.7-13.1-13.4c0-7.3,6.1-14,13.1-13.4
		C199.5,154,206.6,157.4,206.3,166.9z"/>
	<path fill="#4AA6D8" d="M365.3,610.1c7.4,0,13.1,5.9,12.9,13.4c-0.1,7.4-6,12.8-13.7,12.7c-7.1-0.1-13.1-6-13.2-13
		C351.3,615.6,357.3,610,365.3,610.1z"/>
	<path fill="#4AA6D8" d="M711.5,566.1c7.6-0.1,13.6,5.8,13.6,13.4c0,6.9-6.5,13.4-13.5,13.4c-6.5,0-13.3-6.9-13.4-13.7
		C698.2,572.8,704.8,566.2,711.5,566.1z"/>
	<path fill="#4AA6D8" d="M768.2,362.7c0,7.6-5.6,13.4-13,13.4c-7.3,0-13-5.9-13-13.5c0-7.4,5.4-13.3,12.5-13.4
		C762,349.1,768.2,355.3,768.2,362.7z"/>
	<path fill="#4AA6D8" d="M278.4,610.1c7.4,0,13,5.9,12.9,13.4c-0.1,7.4-5.9,12.8-13.7,12.7c-7.1-0.1-13.2-6.3-13.2-13.5
		C264.5,615.4,270.4,610,278.4,610.1z"/>
	<path fill="#4AA6D8" d="M668.6,636.1c-7.7,0-13.4-5.5-13.4-12.9c0-7.5,5.6-13,13.2-13.2c9.6-0.2,12.9,6.7,13.5,12.9
		C682.6,630,675.9,636.1,668.6,636.1z"/>
	<path fill="#4AA6D8" d="M551.3,579.2c0,7.9-5.9,14-13.3,13.7c-6.8-0.2-12.9-6.9-12.8-14c0.1-7.2,5.8-12.8,13-12.9
		C545.6,566.1,551.3,571.7,551.3,579.2z"/>
	<path fill="#4AA6D8" d="M421.3,666.3c0,6.9-6.5,14.1-13.1,13.5c-6.2-0.5-13.2-3.9-13.1-13.4c0.1-7.7,5.5-13.3,13-13.4
		C415.6,653,421.2,658.7,421.3,666.3z"/>
	<path fill="#4AA6D8" d="M321.3,636.1c-7.9,0-13.1-5.2-13.2-12.9c0-7.9,5.1-13.1,12.9-13.1c7.9,0,13.1,5.1,13.1,12.9
		C334.3,630.9,329.1,636.1,321.3,636.1z"/>
	<path fill="#4AA6D8" d="M551.3,492.8c0,7.8-5.2,13.2-12.9,13.3c-7.5,0.1-13.3-5.7-13.2-13.1c0-7.3,6.5-13.8,13.6-13.7
		C545.9,479.5,551.2,485.2,551.3,492.8z"/>
	<path fill="#4AA6D8" d="M365.1,766.2c-7.9,0-14-5.8-13.8-13.3c0.2-6.7,6.9-12.9,14-12.8c7.2,0.1,12.9,5.7,12.9,13
		C378.3,760.5,372.6,766.2,365.1,766.2z"/>
	<path fill="#4AA6D8" d="M380.2,36.2c0,7.3-6.4,14-13.5,14c-6.9,0-13.5-6.6-13.4-13.5c0-6.9,6.7-13.5,13.5-13.4
		C373.5,23.4,380.2,29.8,380.2,36.2z"/>
	<path fill="#4AA6D8" d="M334.3,666.7c-0.1,7-5.9,13-12.9,13.2c-6.6,0.2-13.2-6.6-13.2-13.5c0-7.8,5.8-13.6,13.5-13.4
		C329.1,653.3,334.4,659,334.3,666.7z"/>
	<path fill="#4AA6D8" d="M206.3,210.4c0,7.6-5.3,12.9-12.8,12.9c-8.1,0-13.3-5.3-13.3-13.5c0-7.4,5.5-12.6,13.1-12.6
		C201.2,197.1,206.4,202.4,206.3,210.4z"/>
	<path fill="#4AA6D8" d="M495.2,766.2c-8.3,0-13-4.7-13-13c0-7.8,5.3-13.2,13.1-13.1c7.3,0,13,5.7,13,12.9
		C508.3,760.8,503,766.2,495.2,766.2z"/>
	<path fill="#4AA6D8" d="M293.3,254c0,7.6-5.9,13.3-13.4,13.1c-7.5-0.2-12.8-6-12.7-13.7c0.1-7.4,5.8-13.1,13-13.1
		C286.8,240.3,293.3,247.1,293.3,254z"/>
	<path fill="#4AA6D8" d="M538.3,766.2c-7.8,0-13.2-5.3-13.2-13.1c0-7.3,5.7-13,12.9-13c7.8-0.1,13.2,5.3,13.2,13.1
		C551.3,761.4,546.5,766.1,538.3,766.2z"/>
	<path fill="#4AA6D8" d="M410.5,67.1c8.1,0,12.8,4.9,12.8,13.2c0,7.4-5.9,13.1-13.4,12.9c-7.2-0.1-12.8-5.9-12.7-13.2
		C397.2,72.3,402.7,67.1,410.5,67.1z"/>
	<path fill="#4AA6D8" d="M754.9,462.2c-7.7,0-12.8-5.4-12.8-13.3c0-7.5,5.4-12.8,12.9-12.8c7.6,0,13.3,5.7,13.2,13.2
		C768.1,456.7,762.4,462.2,754.9,462.2z"/>
	<path fill="#4AA6D8" d="M551.3,536.3c0,7.6-5.3,12.9-12.7,12.9c-7.7,0-13.3-5.5-13.4-13c0-7.7,5.7-13.2,13.7-13.1
		C546.2,523.2,551.3,528.6,551.3,536.3z"/>
	<path fill="#4AA6D8" d="M408.3,766.2c-7.7,0-13.1-5.1-13.1-12.5c-0.1-7.9,5.5-13.7,13.2-13.6c7.4,0,12.9,5.8,12.9,13.4
		C421.2,760.9,415.9,766.1,408.3,766.2z"/>
	<path fill="#4AA6D8" d="M655.2,488.4c7.9-1.6,15.5-4.2,22.9-7.3c-0.3,1.6,0.5,2.8,1.3,4.1c3.7,6.1,3.3,11.3-1,16.5
		c-3.4,4-9.5,5.7-14.5,3.8c-5.9-2.2-8.8-6.7-8.8-13.6C655.2,490.7,655.2,489.6,655.2,488.4z"/>
	<path fill="#4AA6D8" d="M251.3,345.2c-4.6-7.1-9.1-14.1-14.3-20.7C248,324.2,255.2,334.6,251.3,345.2z"/>
	<path fill="#0182C8" d="M400.2,295.9c52.6,0,94.6,41.9,94.7,94.6c0.1,52.6-42.3,94.8-95.1,94.7c-52.6-0.1-94.5-42.3-94.4-94.9
		C305.5,337.8,347.5,295.9,400.2,295.9z"/>
	<path fill="#0283C9" d="M121.6,390.4c0.1-23,18.5-41.2,41.4-41.1c22.8,0.2,40.8,18.2,40.9,41.1c0.1,23-18.1,41.2-41.2,41.3
		C139.9,431.8,121.5,413.4,121.6,390.4z"/>
	<path fill="#0283C9" d="M674.2,375.1c3.5,6.3,3.6,13.1,2.9,20c-1.4-0.5-2.8-1.1-4.2-1.5c-5.6-1.8-11.3-0.2-14.8,4.1
		c-3.5,4.4-3.7,10.8-0.9,15.8c1.8,3.2,5.9,3.6,7.8,6.6c-13.5,12.8-33.5,15.3-49.4,6.1c-15.6-9-23.4-26.9-19.5-44.9
		c3.8-17.7,18.8-30.6,37.6-31.8c8.3-0.6,16.2,1,23.3,5.7c-2.9,5.9-3,11.7,1.5,16.6C662.9,376.4,668.3,377.1,674.2,375.1z"/>
	<path fill="#4AA6D8" d="M665.1,420.1c-1.9-3-6-3.4-7.8-6.6c-2.9-5-2.7-11.4,0.9-15.8c3.5-4.3,9.2-5.9,14.8-4.1
		c1.4,0.5,2.8,1,4.2,1.5C676.4,405,672.1,413.2,665.1,420.1z"/>
	<path fill="#4AA6D8" d="M674.2,375.1c-5.8,2-11.3,1.2-15.5-3.4c-4.5-5-4.5-10.8-1.5-16.6C665.4,359.7,671.4,366,674.2,375.1z"/>
</g>
</svg>
